<?xml version="1.0" encoding="UTF-8"?>
<svg version="1.1" xmlns="http://www.w3.org/2000/svg" width="2916" height="866">
<path d="M0 0 C0.66 0 1.32 0 2 0 C3.99792638 6.08589758 5.99129025 12.17327546 7.98144531 18.26171875 C8.65942364 20.33400534 9.33845697 22.40594707 10.01855469 24.47753906 C10.99429547 27.45027702 11.96627133 30.42422281 12.9375 33.3984375 C13.24373291 34.32868744 13.54996582 35.25893738 13.86547852 36.21737671 C14.14576904 37.07811798 14.42605957 37.93885925 14.71484375 38.82568359 C14.96355225 39.58513275 15.21226074 40.34458191 15.46850586 41.12704468 C16 43 16 43 16 45 C31.51 45 47.02 45 63 45 C63 45.66 63 46.32 63 47 C61.07471225 48.52599174 59.14825092 49.92591544 57.125 51.3125 C55.84845497 52.20500964 54.57244053 53.09827852 53.296875 53.9921875 C52.60787109 54.47268555 51.91886719 54.95318359 51.20898438 55.44824219 C47.23627884 58.23897123 43.3078245 61.09098713 39.375 63.9375 C38.60559082 64.49284424 37.83618164 65.04818848 37.04345703 65.62036133 C33.67463755 68.053646 30.31946686 70.49958051 27 73 C27.61530189 78.51403405 28.96074016 83.45582967 30.72265625 88.70703125 C30.98759384 89.51363693 31.25253143 90.32024261 31.52549744 91.15129089 C32.36566598 93.70688031 33.21353473 96.25982073 34.0625 98.8125 C34.91400577 101.38335084 35.76381103 103.95473204 36.61021423 106.52726746 C37.13561935 108.12314603 37.66413904 109.71800323 38.19606018 111.3117218 C40 116.77650476 40 116.77650476 40 119 C35.67373449 117.53938926 32.62121981 115.33620545 29.0625 112.5 C24.30776441 108.75818491 19.49277034 105.13273359 14.5625 101.625 C13.9960376 101.22087891 13.4295752 100.81675781 12.84594727 100.40039062 C9.27393299 97.86619487 5.64754931 95.42364404 2 93 C1.48820468 105.14266302 1.09839434 117.28273016 0.86013222 129.43401527 C0.7457075 135.07839658 0.59088497 140.71535994 0.34033203 146.35546875 C-1.75629894 169.46874683 -1.75629894 169.46874683 3.87585449 191.23474121 C7.76780063 195.25063339 11.88512439 197.3724559 17.08740234 199.27099609 C18.70135784 199.89287054 20.31440465 200.51749798 21.91781998 201.16606522 C23.490571 201.79596838 25.0748151 202.39727996 26.66393661 202.9846611 C34.18220586 205.94325279 41.11594205 209.37119061 46 216 C49.68883177 226.53673623 48.63661743 238.33180676 48.23066664 249.32431173 C48.09210937 253.71440693 48.08013846 258.10491259 48.05410767 262.49685669 C47.98601154 270.79390711 47.80592451 279.0844981 47.58441889 287.37871659 C47.33757917 296.82897149 47.21733075 306.27955331 47.10711932 315.73223472 C46.87781674 335.15847146 46.49146552 354.57871476 46 374 C46.77052011 374.30630561 47.54104023 374.61261122 48.33490944 374.92819881 C53.32256551 376.93405024 57.46758042 378.82612317 61 383 C62.40318206 388.4771118 62.16814585 393.83502845 61.9765625 399.43359375 C61.95789099 401.03780189 61.94366592 402.6420674 61.9336853 404.24635315 C61.89565699 408.45156693 61.79758054 412.65327879 61.68664551 416.8571167 C61.584002 421.15361147 61.53860394 425.45067719 61.48828125 429.74804688 C61.38130799 438.16696472 61.21084339 446.58304577 61 455 C61.78353851 455.30652496 62.56707703 455.61304993 63.37435913 455.92886353 C65.78217383 456.91113729 67.79358739 457.99931688 69.9765625 459.3984375 C70.71970703 459.87152344 71.46285156 460.34460938 72.22851562 460.83203125 C73.01935547 461.34121094 73.81019531 461.85039062 74.625 462.375 C76.3358673 463.4662559 78.0468068 464.55739861 79.7578125 465.6484375 C80.62954102 466.2062793 81.50126953 466.76412109 82.39941406 467.33886719 C86.42273353 469.90877571 90.46163082 472.45383389 94.5 475 C96.08341854 475.99986507 97.66675163 476.99986548 99.25 478 C100.425625 478.7425 100.425625 478.7425 101.625 479.5 C104 481 106.375 482.5 108.75 484 C109.5347168 484.49556396 110.31943359 484.99112793 111.12792969 485.50170898 C112.70166781 486.49574263 114.27523723 487.49004341 115.84863281 488.48461914 C119.95238696 491.07818836 124.05949704 493.66621673 128.171875 496.24609375 C129.44708008 497.04756836 129.44708008 497.04756836 130.74804688 497.86523438 C132.36284017 498.87999519 133.97865328 499.89313581 135.59570312 500.90429688 C136.33240234 501.36771484 137.06910156 501.83113281 137.828125 502.30859375 C138.4665332 502.70876709 139.10494141 503.10894043 139.76269531 503.52124023 C140.87016113 504.25322632 140.87016113 504.25322632 142 505 C143.77713127 505.86525299 143.77713127 505.86525299 145.59016418 506.74798584 C148.15702343 508.61240351 148.9021262 509.5838821 149.63694954 512.70803928 C149.86525823 516.32623063 149.86482768 519.88605306 149.79467773 523.51098633 C149.79270221 524.90086771 149.79381353 526.2907564 149.79777527 527.68063354 C149.79978195 531.44738852 149.75866069 535.21257987 149.70975757 538.97897172 C149.66596646 542.91735269 149.66188401 546.85577044 149.65357971 550.7943573 C149.63183191 558.24959727 149.57440188 565.7041178 149.50413328 573.15904111 C149.42586234 581.64740642 149.38739656 590.13580629 149.35226524 598.6244427 C149.27911781 616.0833778 149.15601196 633.5416128 149 651 C147.72289776 650.36930933 146.44669357 649.73679999 145.17086792 649.10353088 C144.46008528 648.7514988 143.74930264 648.39946672 143.01698112 648.03676701 C140.50700506 646.74659114 138.16865332 645.27860714 135.8203125 643.71484375 C134.44020996 642.8031543 134.44020996 642.8031543 133.03222656 641.87304688 C132.0728418 641.23431641 131.11345703 640.59558594 130.125 639.9375 C122.23352461 634.73382927 114.29770007 629.64172651 106.19970703 624.76538086 C104.89675896 623.98039368 103.6072227 623.17257084 102.33436584 622.3396759 C100.00045691 620.89690023 100.00045691 620.89690023 97.20649719 620.07489014 C93.44536218 618.51723906 91.54533347 617.2173105 89 614 C87.25929293 607.29801939 87.92932398 600.07723624 88.20194817 593.22455597 C88.34144756 589.59894179 88.40560365 585.97897343 88.44911194 582.35101318 C88.58604151 572.0450415 88.85690402 561.74403769 89.1809082 551.44238281 C89.37417719 545.13174252 89.47885583 538.82439711 89.53164864 532.51110077 C89.57018806 530.11345894 89.64323195 527.71610338 89.75211906 525.32062531 C90.78478865 512.9492163 90.78478865 512.9492163 86.28413773 501.95549011 C82.1295601 498.49816035 77.54784453 496.15455497 72.53531742 494.18239975 C68.84511617 492.46139511 65.45286772 490.15804233 62 488 C61.67 568.85 61.34 649.7 61 733 C50.18826582 737.20456329 39.89989127 741.17905493 28.8125 744.25 C27.68392578 744.57484375 26.55535156 744.8996875 25.39257812 745.234375 C19.32233321 746.94605293 13.25223999 748.40688072 7.06518555 749.61230469 C6.38114403 749.74728363 5.69710251 749.88226257 4.99233246 750.02133179 C3.3285779 750.34936663 1.66433929 750.6749449 0 751 C0.004719 750.26147157 0.00943799 749.52294315 0.01429999 748.76203507 C0.29176594 704.98006865 0.47528504 661.19857105 0.53699366 617.41574175 C0.544486 612.15744972 0.55276238 606.8991592 0.56152344 601.64086914 C0.5641199 600.07063859 0.5641199 600.07063859 0.56676881 598.4686862 C0.59665758 581.52367895 0.69004388 564.57958738 0.80694492 547.63498255 C0.9255031 530.24504712 0.97571296 512.85588024 0.96262586 495.46554071 C0.95670124 484.7360355 1.00392714 474.00947813 1.11940096 463.28058139 C1.19350305 455.92084157 1.20114325 448.56289027 1.156855 441.20291843 C1.13325614 436.95662808 1.13863329 432.71566257 1.22307396 428.47002983 C2.24940342 412.27430174 2.24940342 412.27430174 -2.73952532 397.61080766 C-6.79692004 393.9268772 -11.27310631 391.69599584 -16.47333777 390.04626065 C-20.21198757 388.49813042 -23.56856991 386.14464381 -27 384 C-27.33 506.43 -27.66 628.86 -28 755 C-31.38143814 755.67628763 -33.82141632 756.12551402 -37.13183594 756.12939453 C-38.29764191 756.13412277 -38.29764191 756.13412277 -39.48699951 756.13894653 C-40.31113342 756.1369223 -41.13526733 756.13489807 -41.984375 756.1328125 C-42.84057434 756.13376923 -43.69677368 756.13472595 -44.57891846 756.13571167 C-46.38090082 756.13639008 -48.18288566 756.13455949 -49.98486328 756.13037109 C-52.7542868 756.12499167 -55.52355008 756.13034099 -58.29296875 756.13671875 C-60.04427119 756.13605842 -61.79557354 756.13477821 -63.546875 756.1328125 C-64.37910583 756.13483673 -65.21133667 756.13686096 -66.06878662 756.13894653 C-71.88503182 756.11496818 -71.88503182 756.11496818 -73 755 C-73.1188222 752.88784694 -73.16615477 750.77167329 -73.18729401 748.65628624 C-73.19533857 747.9825885 -73.20338313 747.30889075 -73.21167147 746.61477792 C-73.23763264 744.32893334 -73.25633971 742.04308651 -73.27502441 739.75717163 C-73.29191102 738.1129502 -73.30917599 736.46873261 -73.32678938 734.8245188 C-73.37391113 730.28374468 -73.41426433 725.74293182 -73.45322371 721.2020812 C-73.4786425 718.29947664 -73.50593133 715.39689567 -73.53385544 712.49431419 C-73.89783276 674.61142812 -74.1089977 636.72755212 -74.27381134 598.84332848 C-74.29509806 594.03650097 -74.31680352 589.22967556 -74.33886719 584.42285156 C-74.34433483 583.2281152 -74.34980246 582.03337883 -74.35543579 580.80243833 C-74.44636339 561.46715834 -74.62146653 542.13353264 -74.82864982 522.79918782 C-75.03957333 502.95049031 -75.16297742 483.1026544 -75.20470572 463.25287211 C-75.2331237 451.00939155 -75.32886652 438.77028985 -75.51143223 426.52812172 C-75.63008857 418.1278644 -75.6632696 409.72993904 -75.63004488 401.32892118 C-75.61335898 396.48364319 -75.63345418 391.64610905 -75.75518417 386.80216408 C-76.42872103 358.59134987 -76.42872103 358.59134987 -70.78189659 351.02977037 C-65.46932649 346.13603805 -59.56849452 343.06226875 -52.94283962 340.30164456 C-48.24396948 338.22329183 -44.04614534 335.42056109 -39.75 332.625 C-32.62348859 328.20782953 -32.62348859 328.20782953 -29 327 C-29.00921793 326.11485686 -29.01843586 325.22971373 -29.02793312 324.31774807 C-29.24881227 302.77656107 -29.41427321 281.23556933 -29.51812172 259.69348812 C-29.56967784 249.2757951 -29.63996003 238.85885812 -29.75439453 228.44165039 C-29.8540933 219.36153537 -29.91858794 210.28196786 -29.94088495 201.20132071 C-29.95391864 196.39319266 -29.98452507 191.58663082 -30.05730057 186.77900505 C-30.12527445 182.25182247 -30.14609897 177.72684791 -30.13107681 173.19920349 C-30.13382394 171.539475 -30.15366655 169.87967136 -30.19205475 168.2203846 C-30.46677795 155.73126101 -30.46677795 155.73126101 -26.87321091 151.48971748 C-22.78710025 148.52886795 -18.69073507 146.87629403 -14 145 C-14 131.14 -14 117.28 -14 103 C-24.40793268 110.37227399 -24.40793268 110.37227399 -34.546875 118.0390625 C-36 119 -36 119 -38 119 C-36.39079922 112.69479818 -34.54773909 106.49132402 -32.484375 100.3203125 C-32.15197815 99.32061432 -32.15197815 99.32061432 -31.81286621 98.30072021 C-30.89295238 95.53726341 -29.97125225 92.77460865 -29.03222656 90.01757812 C-28.3387373 87.97611317 -27.66041685 85.93011051 -26.984375 83.8828125 C-26.57928711 82.68027832 -26.17419922 81.47774414 -25.75683594 80.23876953 C-24.98326222 76.92837311 -24.83463517 75.17130364 -26 72 C-27.33945365 70.47886996 -27.33945365 70.47886996 -29.1484375 69.37890625 C-29.81560791 68.92491455 -30.48277832 68.47092285 -31.17016602 68.00317383 C-31.89776123 67.52775146 -32.62535645 67.0523291 -33.375 66.5625 C-34.91416542 65.51769181 -36.4518675 64.47072539 -37.98828125 63.421875 C-38.79990723 62.87208984 -39.6115332 62.32230469 -40.44775391 61.75585938 C-44.88751156 58.7014556 -49.22429789 55.5087451 -53.5625 52.3125 C-54.40151855 51.70027588 -55.24053711 51.08805176 -56.10498047 50.45727539 C-56.87600098 49.89000732 -57.64702148 49.32273926 -58.44140625 48.73828125 C-59.12920166 48.23337158 -59.81699707 47.72846191 -60.52563477 47.20825195 C-61.01217529 46.80952881 -61.49871582 46.41080566 -62 46 C-62 45.67 -62 45.34 -62 45 C-46.16 45 -30.32 45 -14 45 C-12.515 39.555 -12.515 39.555 -11 34 C-10.12035596 31.15336309 -9.22839665 28.31872301 -8.30078125 25.48828125 C-8.0608696 24.74918015 -7.82095795 24.01007904 -7.57377625 23.24858093 C-6.82243399 20.93575946 -6.06754522 18.62411489 -5.3125 16.3125 C-4.79598632 14.72468666 -4.27970853 13.13679656 -3.76367188 11.54882812 C-2.51182944 7.6983294 -1.25680972 3.84888011 0 0 Z M0 40 C-0.83698386 42.45714547 -1.66972424 44.91558857 -2.5 47.375 C-2.85771484 48.42300781 -2.85771484 48.42300781 -3.22265625 49.4921875 C-4.53735912 53.16403079 -4.53735912 53.16403079 -5 57 C-11.27 57 -17.54 57 -24 57 C-20.88946842 60.11053158 -18.2506787 62.73885366 -14.8125 65.3125 C-13.80123047 66.08013672 -13.80123047 66.08013672 -12.76953125 66.86328125 C-11.07007701 68.18015865 -11.07007701 68.18015865 -9 68 C-9.54140625 69.57201172 -9.54140625 69.57201172 -10.09375 71.17578125 C-10.56273818 72.55460651 -11.0314751 73.93351725 -11.5 75.3125 C-11.73847656 76.00279297 -11.97695312 76.69308594 -12.22265625 77.40429688 C-13.23208263 80.38931489 -14 82.82658914 -14 86 C-9.69854024 84.05291891 -6.23083601 81.16733337 -2.53515625 78.265625 C0 77 0 77 2.5234375 77.5703125 C5.1245572 79.07190526 7.37143302 80.71394983 9.6875 82.625 C12.49664992 85.23298735 12.49664992 85.23298735 16 86 C15.79503906 85.20335937 15.59007812 84.40671875 15.37890625 83.5859375 C15.10949219 82.52632812 14.84007812 81.46671875 14.5625 80.375 C14.29566406 79.33085938 14.02882812 78.28671875 13.75390625 77.2109375 C13.03547461 74.15108876 12.48023284 71.1051949 12 68 C13.010625 67.28972656 14.02125 66.57945313 15.0625 65.84765625 C16.37512278 64.91944443 17.68761614 63.99104959 19 63.0625 C19.66773438 62.59392578 20.33546875 62.12535156 21.0234375 61.64257812 C22.70029767 60.45337627 24.35238787 59.22940446 26 58 C26 57.67 26 57.34 26 57 C19.73 56.67 13.46 56.34 7 56 C4.525 48.08 4.525 48.08 2 40 C1.34 40 0.68 40 0 40 Z " fill="#1A2C5D" transform="translate(205,26)"/>
<path d="M0 0 C19.47 0 38.94 0 59 0 C59 0.66 59 1.32 59 2 C61.97 2.495 61.97 2.495 65 3 C65.495 5.97 65.495 5.97 66 9 C67.65 9.33 69.3 9.66 71 10 C71.495 12.97 71.495 12.97 72 16 C73.65 16.33 75.3 16.66 77 17 C77.2475 17.94875 77.495 18.8975 77.75 19.875 C78.6857077 23.08693191 78.6857077 23.08693191 81.125 24.375 C81.74375 24.58125 82.3625 24.7875 83 25 C82.67 25.66 82.34 26.32 82 27 C82.639375 27.556875 83.27875 28.11375 83.9375 28.6875 C86.19680987 31.22066561 86.63149047 32.68341424 87 36 C87.61875 36.04125 88.2375 36.0825 88.875 36.125 C89.57625 36.41375 90.2775 36.7025 91 37 C92.25 40.0625 92.25 40.0625 93 43 C94.65 43.33 96.3 43.66 98 44 C98 45.98 98 47.96 98 50 C99.65 50.33 101.3 50.66 103 51 C103.185625 51.8971875 103.185625 51.8971875 103.375 52.8125 C103.95475985 55.26231348 103.95475985 55.26231348 106 58 C106.125 60.6875 106.125 60.6875 106 63 C107.98 63 109.96 63 112 63 C112 65.31 112 67.62 112 70 C113.65 70 115.3 70 117 70 C117.20625 70.94875 117.4125 71.8975 117.625 72.875 C118.70833333 76.29166667 118.70833333 76.29166667 122.125 77.375 C123.07375 77.58125 124.0225 77.7875 125 78 C124.79375 78.61875 124.5875 79.2375 124.375 79.875 C124.189375 80.926875 124.189375 80.926875 124 82 C124.66 82.66 125.32 83.32 126 84 C126.625 86.625 126.625 86.625 127 89 C128.65 89.33 130.3 89.66 132 90 C132.33 92.31 132.66 94.62 133 97 C134.65 97 136.3 97 138 97 C138.33 98.98 138.66 100.96 139 103 C140.65 103.33 142.3 103.66 144 104 C144.28875 104.94875 144.5775 105.8975 144.875 106.875 C145.76825109 110.05211578 145.76825109 110.05211578 148 112 C147.34 112 146.68 112 146 112 C147.0975223 114.99324263 147.67682892 115.84610901 150.625 117.25 C151.800625 117.62125 151.800625 117.62125 153 118 C153 119.98 153 121.96 153 124 C154.65 124.33 156.3 124.66 158 125 C158.33 126.65 158.66 128.3 159 130 C161.97 130.99 161.97 130.99 165 132 C165.12375 132.804375 165.2475 133.60875 165.375 134.4375 C165.58125 135.283125 165.7875 136.12875 166 137 C166.66 137.33 167.32 137.66 168 138 C168.12375 138.639375 168.2475 139.27875 168.375 139.9375 C168.80939427 142.19851273 168.80939427 142.19851273 171.0625 143.25 C172.0215625 143.62125 172.0215625 143.62125 173 144 C173 146.31 173 148.62 173 151 C174.65 151 176.3 151 178 151 C178.33 152.98 178.66 154.96 179 157 C179.99 157.33 180.98 157.66 182 158 C181.51244075 157.1407662 181.0248815 156.2815324 180.52254772 155.39626122 C178.90813303 151.79507754 178.62927245 149.57234974 178.63923645 145.65982056 C178.63305046 143.77950638 178.63305046 143.77950638 178.6267395 141.86120605 C178.6373548 140.48510524 178.6482592 139.10900663 178.65942383 137.73291016 C178.66027067 136.27391579 178.65979384 134.81492014 178.65809631 133.35592651 C178.65723716 129.40588187 178.67484985 125.45611168 178.69581819 121.5061307 C178.71459836 117.37416769 178.71633648 113.24219808 178.71989441 109.11019897 C178.72921094 101.29049267 178.7538194 93.4709125 178.78394288 85.65126169 C178.81749909 76.74683577 178.83397597 67.84240377 178.84902918 58.93793035 C178.88036932 40.62521544 178.93312218 22.31261787 179 4 C179.66 3.67 180.32 3.34 181 3 C181.33 2.01 181.66 1.02 182 0 C204.77 0 227.54 0 251 0 C251 0.99 251 1.98 251 3 C251.66 3 252.32 3 253 3 C253 95.4 253 187.8 253 283 C230.89 283 208.78 283 186 283 C184 277 184 277 184 275 C182.35 274.34 180.7 273.68 179 273 C179 270.69 179 268.38 179 266 C177.02 266 175.04 266 173 266 C172.67 264.02 172.34 262.04 172 260 C170.02 259.34 168.04 258.68 166 258 C166 256.02 166 254.04 166 252 C164.68 252 163.36 252 162 252 C162.33 250.68 162.66 249.36 163 248 C161.68 247.67 160.36 247.34 159 247 C158.67 244.69 158.34 242.38 158 240 C156.02 239.67 154.04 239.34 152 239 C152 237.02 152 235.04 152 233 C151.195625 232.79375 150.39125 232.5875 149.5625 232.375 C148.716875 231.92125 147.87125 231.4675 147 231 C146.1875 227.875 146.1875 227.875 146 225 C144.35 225 142.7 225 141 225 C140.87625 224.21625 140.7525 223.4325 140.625 222.625 C140.20882007 219.85942178 140.20882007 219.85942178 138 218 C137.375 215.375 137.375 215.375 137 213 C135.35 212.67 133.7 212.34 132 212 C132 210.35 132 208.7 132 207 C129.03 206.01 129.03 206.01 126 205 C126 203.35 126 201.7 126 200 C125.071875 199.9175 124.14375 199.835 123.1875 199.75 C120 198 120 198 118.93359375 195.1953125 C118.18961892 192.14034339 117.53988283 189.09722253 117 186 C115.35 186 113.7 186 112 186 C112 183.69 112 181.38 112 179 C110.02 178.67 108.04 178.34 106 178 C105.67 176.02 105.34 174.04 105 172 C103.35 172 101.7 172 100 172 C99.690625 170.865625 99.38125 169.73125 99.0625 168.5625 C98.37075469 165.21224901 98.37075469 165.21224901 97 164 C96.95936168 162.33382885 96.957279 160.66611905 97 159 C95.35 159 93.7 159 92 159 C91.22227595 156.66682784 90.57584432 154.38564077 90 152 C88.68 151.67 87.36 151.34 86 151 C86 149.02 86 147.04 86 145 C84.02 145 82.04 145 80 145 C79.505 141.535 79.505 141.535 79 138 C78.01 137.67 77.02 137.34 76 137 C75.505 134.525 75.505 134.525 75 132 C74.01 131.67 73.02 131.34 72 131 C72 181.16 72 231.32 72 283 C47.58 283 23.16 283 -2 283 C-2.72061711 279.39691446 -3.12599433 276.73563716 -3.13142776 273.17200661 C-3.13718948 271.74754878 -3.13718948 271.74754878 -3.1430676 270.29431403 C-3.14220112 269.25920608 -3.14133463 268.22409814 -3.14044189 267.15762329 C-3.14341302 266.05164744 -3.14638414 264.94567158 -3.1494453 263.80618131 C-3.15813059 260.09294788 -3.1596404 256.37974669 -3.16113281 252.66650391 C-3.16576103 250.00720569 -3.17076513 247.3479104 -3.17617798 244.68861389 C-3.18974645 237.45933336 -3.19578339 230.23005838 -3.20018864 223.00076723 C-3.20295296 218.48613016 -3.2071906 213.97149522 -3.21169281 209.45685959 C-3.22388238 196.9545715 -3.23418306 184.45228513 -3.2375679 171.94999123 C-3.23778747 171.15020512 -3.23800703 170.35041901 -3.23823325 169.52639695 C-3.23845153 168.72471476 -3.23866981 167.92303257 -3.2388947 167.09705698 C-3.23933817 165.47258226 -3.23978473 163.84810754 -3.24023438 162.22363281 C-3.2404558 161.41783989 -3.24067723 160.61204697 -3.24090537 159.78183608 C-3.24485454 146.72124044 -3.26231356 133.66070056 -3.2855939 120.60012646 C-3.30930813 107.18781496 -3.32176974 93.77553144 -3.32293582 80.36319864 C-3.32385242 72.83389458 -3.32960106 65.30466321 -3.34775543 57.77537918 C-3.36315722 51.3652028 -3.36827635 44.9551216 -3.36001733 38.54493023 C-3.35611137 35.27516564 -3.35867079 32.00563275 -3.37107468 28.73588371 C-3.38374108 25.18920483 -3.3779458 21.64301917 -3.36749268 18.09634399 C-3.37554908 17.06569749 -3.38360548 16.035051 -3.39190602 14.97317278 C-3.38531618 14.01831874 -3.37872633 13.06346469 -3.3719368 12.07967567 C-3.37253389 11.2618104 -3.37313097 10.44394513 -3.37374616 9.60129607 C-3 7 -3 7 0 0 Z M69 125 C69.57344937 127.86724686 69.8614515 128.8614515 72 131 C72 129.35 72 127.7 72 126 C71.01 125.67 70.02 125.34 69 125 Z " fill="#1A2C5E" transform="translate(759,352)"/>
<path d="M0 0 C20.13 0 40.26 0 61 0 C61 0.66 61 1.32 61 2 C63.97 2.495 63.97 2.495 67 3 C67.28875 4.051875 67.5775 5.10375 67.875 6.1875 C69.14200487 10.71651082 69.14200487 10.71651082 71 15 C73.04105639 15.88693303 73.04105639 15.88693303 75 16 C75.495 19.465 75.495 19.465 76 23 C77.65 23.33 79.3 23.66 81 24 C81.99 26.97 81.99 26.97 83 30 C84.32 30 85.64 30 87 30 C87.4021875 31.4540625 87.4021875 31.4540625 87.8125 32.9375 C88.204375 33.948125 88.59625 34.95875 89 36 C90.485 36.495 90.485 36.495 92 37 C91.34 38.65 90.68 40.3 90 42 C91.98 42.33 93.96 42.66 96 43 C96 45.31 96 47.62 96 50 C97.65 50.33 99.3 50.66 101 51 C101.495 53.475 101.495 53.475 102 56 C103.65 56.33 105.3 56.66 107 57 C107.2475 57.94875 107.495 58.8975 107.75 59.875 C108.6857077 63.08693191 108.6857077 63.08693191 111.125 64.375 C111.74375 64.58125 112.3625 64.7875 113 65 C112.01 65.495 112.01 65.495 111 66 C111.33 66.66 111.66 67.32 112 68 C113.485 68.495 113.485 68.495 115 69 C116 74.75 116 74.75 116 77 C116.804375 76.979375 117.60875 76.95875 118.4375 76.9375 C121 77 121 77 122 78 C122.04080783 79.99958364 122.04254356 82.00045254 122 84 C123.98 84 125.96 84 128 84 C128.0825 84.94875 128.165 85.8975 128.25 86.875 C128.65074923 90.10461791 128.65074923 90.10461791 131.0625 91.375 C131.701875 91.58125 132.34125 91.7875 133 92 C133 92.99 133 93.98 133 95 C133.99 95.66 134.98 96.32 136 97 C136.6875 100.125 136.6875 100.125 137 103 C138.65 103.33 140.3 103.66 142 104 C142 106.31 142 108.62 142 111 C143.98 111 145.96 111 148 111 C148.37125 112.423125 148.37125 112.423125 148.75 113.875 C149.62202318 117.10993101 149.62202318 117.10993101 151.9921875 117.8828125 C154 119 154 119 154.8359375 121.3125 C155.01382813 122.199375 155.19171875 123.08625 155.375 124 C156.0020514 126.67685569 156.0020514 126.67685569 157 129 C160.01773585 130.76097486 160.01773585 130.76097486 163 131 C163 132.65 163 134.3 163 136 C164.65 136.33 166.3 136.66 168 137 C168.061875 137.94875 168.12375 138.8975 168.1875 139.875 C168.5896875 141.421875 168.5896875 141.421875 169 143 C171.46255685 144.45291273 171.46255685 144.45291273 174 145 C174 146.65 174 148.3 174 150 C174.66 150 175.32 150 176 150 C176.99 153.465 176.99 153.465 178 157 C179.32 157.33 180.64 157.66 182 158 C181.75663674 156.69925506 181.75663674 156.69925506 181.50835705 155.37223244 C181.02987234 152.19816088 180.87159942 149.24993035 180.86628723 146.04428101 C180.85988976 144.29094955 180.85988976 144.29094955 180.85336304 142.50219727 C180.85381622 141.23351807 180.85426941 139.96483887 180.85473633 138.65771484 C180.85174137 137.29700631 180.84833806 135.93629862 180.84455872 134.57559204 C180.83574594 130.8893042 180.83338167 127.20303959 180.83274293 123.51674223 C180.83203055 121.208665 180.8298926 118.90059362 180.82724571 116.59251785 C180.81799924 108.52570473 180.8139097 100.45890809 180.81469727 92.39208984 C180.81529693 84.89749002 180.80476519 77.40296243 180.7889536 69.90838087 C180.77582961 63.45546838 180.77051544 57.00257936 180.77115268 50.54965365 C180.77140636 46.70400935 180.76862748 42.8584292 180.75797462 39.01279831 C180.74821224 35.38973697 180.74826951 31.7668 180.75549126 28.14373398 C180.75701667 26.19947448 180.74874636 24.25521478 180.74005127 22.31097412 C180.74424576 21.12516754 180.74844025 19.93936096 180.75276184 18.71762085 C180.75221707 17.70406713 180.75167231 16.69051342 180.75111103 15.64624596 C181.10993346 10.38946481 182.13377954 5.19732274 183 0 C204.45 0 225.9 0 248 0 C248.33 0.99 248.66 1.98 249 3 C249.99 3.495 249.99 3.495 251 4 C251 96.07 251 188.14 251 283 C228.23 283 205.46 283 182 283 C182 280.03 182 277.06 182 274 C180.824375 273.690625 180.824375 273.690625 179.625 273.375 C177 272 177 272 175.6875 268.875 C175.3471875 267.451875 175.3471875 267.451875 175 266 C173.68 266 172.36 266 171 266 C171 264.02 171 262.04 171 260 C170.34 260 169.68 260 169 260 C168.01 256.535 168.01 256.535 167 253 C165.35 253 163.7 253 162 253 C162 251.02 162 249.04 162 247 C161.195625 246.79375 160.39125 246.5875 159.5625 246.375 C158.716875 245.92125 157.87125 245.4675 157 245 C156.1875 241.875 156.1875 241.875 156 239 C153.69 239 151.38 239 149 239 C149.66 238.67 150.32 238.34 151 238 C149.92598892 235.08482708 149.22189824 233.22189824 147 231 C147 229.68 147 228.36 147 227 C145.35 226.34 143.7 225.68 142 225 C142 223.02 142 221.04 142 219 C140.35 218.67 138.7 218.34 137 218 C136.34 216.02 135.68 214.04 135 212 C133.35 212 131.7 212 130 212 C130 210.02 130 208.04 130 206 C129.01 205.67 128.02 205.34 127 205 C126.67 203.35 126.34 201.7 126 200 C124.68 200 123.36 200 122 200 C122 197.36 122 194.72 122 192 C120.02 191.67 118.04 191.34 116 191 C116 189.02 116 187.04 116 185 C113.69 185 111.38 185 109 185 C108.505 181.535 108.505 181.535 108 178 C107.01 177.67 106.02 177.34 105 177 C105.33 176.01 105.66 175.02 106 174 C105.195625 173.608125 104.39125 173.21625 103.5625 172.8125 C101 171 101 171 100.1875 168.3125 C100.125625 167.549375 100.06375 166.78625 100 166 C98.35 165.67 96.7 165.34 95 165 C95 163.02 95 161.04 95 159 C93.35 158.67 91.7 158.34 90 158 C89.731875 157.030625 89.46375 156.06125 89.1875 155.0625 C88.5996875 153.5465625 88.5996875 153.5465625 88 152 C87.01 151.67 86.02 151.34 85 151 C84.65657551 149.66923011 84.32380126 148.33568021 84 147 C82.515 146.01 82.515 146.01 81 145 C80.8125 142.375 80.8125 142.375 81 140 C79.02 139.34 77.04 138.68 75 138 C74.67 136.02 74.34 134.04 74 132 C73.01 131.67 72.02 131.34 71 131 C70.34 129.02 69.68 127.04 69 125 C69 177.14 69 229.28 69 283 C44.25 283 19.5 283 -6 283 C-6.04407105 248.03470983 -6.081007 213.06944656 -6.10213066 178.10413699 C-6.10463215 173.97844154 -6.10722078 169.85274614 -6.10986328 165.72705078 C-6.1103879 164.90568096 -6.11091252 164.08431114 -6.11145304 163.23805133 C-6.12016142 149.92939972 -6.13593378 136.62076535 -6.15430559 123.31212398 C-6.1729926 109.66155595 -6.18411418 96.01099695 -6.18817699 82.36041665 C-6.19092454 73.93372974 -6.19961005 65.50709155 -6.21583293 57.08041963 C-6.22638502 51.30604529 -6.22960466 45.53169621 -6.22700275 39.75731292 C-6.22571868 36.42317621 -6.22880543 33.08919369 -6.23841095 29.7550602 C-6.24830831 26.14366506 -6.24598788 22.5324812 -6.24050903 18.92108154 C-6.24924756 17.33354242 -6.24924756 17.33354242 -6.25816262 15.7139318 C-6.25418052 14.74803382 -6.25019842 13.78213584 -6.24609566 12.78696823 C-6.2468551 11.95310239 -6.24761454 11.11923654 -6.24839699 10.26010203 C-5.96875201 7.71568239 -5.41600271 6.13020866 -4 4 C-3.01 3.67 -2.02 3.34 -1 3 C-0.67 2.01 -0.34 1.02 0 0 Z M182 161 C183 163 183 163 183 163 Z " fill="#1A2C5E" transform="translate(2395,352)"/>
<path d="M0 0 C38.61 0 77.22 0 117 0 C117 0.66 117 1.32 117 2 C135.315 2.495 135.315 2.495 154 3 C153.67 4.65 153.34 6.3 153 8 C157.6279312 9.46591538 162.52048065 9.34299974 167.33203125 9.51757812 C172.78466655 9.78466655 172.78466655 9.78466655 175 12 C174.34 12 173.68 12 173 12 C173.33 12.99 173.66 13.98 174 15 C177.00778521 16.00259507 179.53820647 16.30314642 182.6875 16.5625 C183.68136719 16.64628906 184.67523437 16.73007812 185.69921875 16.81640625 C186.83810547 16.90728516 186.83810547 16.90728516 188 17 C188.33 18.65 188.66 20.3 189 22 C192.3 22.66 195.6 23.32 199 24 C199.33 25.32 199.66 26.64 200 28 C203.3 28.66 206.6 29.32 210 30 C210 31.65 210 33.3 210 35 C211.134375 35.12375 212.26875 35.2475 213.4375 35.375 C214.613125 35.58125 215.78875 35.7875 217 36 C218 38 218 38 218 42 C220.97 42.99 220.97 42.99 224 44 C224.33 45.65 224.66 47.3 225 49 C227.31 49.33 229.62 49.66 232 50 C232 51.98 232 53.96 232 56 C234.97 56.99 234.97 56.99 238 58 C237.01 58.33 236.02 58.66 235 59 C235 59.66 235 60.32 235 61 C235.9590625 61.2784375 235.9590625 61.2784375 236.9375 61.5625 C239 63 239 63 239.75 66.625 C239.8325 67.73875 239.915 68.8525 240 70 C241.65 70 243.3 70 245 70 C245.99 76.93 245.99 76.93 247 84 C249.97 83.505 249.97 83.505 253 83 C253 87.95 253 92.9 253 98 C254.485 97.505 254.485 97.505 256 97 C256.99 97.33 257.98 97.66 259 98 C260.53741401 128.61334753 260.75798807 159.39217202 259 190 C257.35 190.33 255.7 190.66 254 191 C253.67 195.95 253.34 200.9 253 206 C251.02 205.67 249.04 205.34 247 205 C246.67 209.29 246.34 213.58 246 218 C243.03 218.99 243.03 218.99 240 220 C240.04125 220.763125 240.0825 221.52625 240.125 222.3125 C240 225 240 225 238 228 C237.01 228 236.02 228 235 228 C235 228.66 235 229.32 235 230 C235.99 230 236.98 230 238 230 C238 230.66 238 231.32 238 232 C236.35 232 234.7 232 233 232 C232.79375 232.94875 232.5875 233.8975 232.375 234.875 C231 238 231 238 227.875 239.375 C226.92625 239.58125 225.9775 239.7875 225 240 C225 241.65 225 243.3 225 245 C221.535 245.99 221.535 245.99 218 247 C217.67 248.65 217.34 250.3 217 252 C213.535 252.99 213.535 252.99 210 254 C210 255.32 210 256.64 210 258 C205.05 259.485 205.05 259.485 200 261 C199.67 262.65 199.34 264.3 199 266 C195.7 266.33 192.4 266.66 189 267 C188.67 268.65 188.34 270.3 188 272 C183.05 272.66 178.1 273.32 173 274 C173.33 275.98 173.66 277.96 174 280 C169.38 279.67 164.76 279.34 160 279 C160 279.66 160 280.32 160 281 C161.65 281 163.3 281 165 281 C165 281.66 165 282.32 165 283 C109.56 283 54.12 283 -3 283 C-3 190.93 -3 98.86 -3 4 C-2.01 4 -1.02 4 0 4 C0 2.68 0 1.36 0 0 Z M71 71 C69.92654457 74.22036629 69.89137944 76.48066803 69.91770935 79.86552429 C69.92474884 81.08970062 69.93178833 82.31387695 69.93904114 83.57514954 C69.95202355 84.93380828 69.96510362 86.29246609 69.97827148 87.65112305 C69.98841448 89.08011577 69.99810813 90.50911174 70.00738525 91.93811035 C70.03386421 95.82008501 70.06664415 99.70198414 70.10053515 103.58390021 C70.13488018 107.63979444 70.16345846 111.69572915 70.19264221 115.75166321 C70.24879369 123.43332191 70.31014932 131.11492993 70.37336355 138.79653341 C70.44507404 147.54126777 70.51099988 156.28604274 70.57643402 165.03082597 C70.7111751 183.02060351 70.85319948 201.01031703 71 219 C79.66678624 218.9156085 88.33337578 218.8207299 96.999897 218.71247292 C101.02414759 218.66253373 105.04837223 218.61620355 109.07275391 218.578125 C112.9567365 218.54124204 116.84050077 218.49487405 120.72429657 218.44193649 C122.20580972 218.42340851 123.68736965 218.40829463 125.16895294 218.39665604 C127.2446985 218.37976598 129.3199458 218.3507253 131.39550781 218.31884766 C133.16755585 218.29886215 133.16755585 218.29886215 134.97540283 218.2784729 C137.89090386 218.01004442 139.59589634 217.6372922 142 216 C142.80528889 213.94999129 142.80528889 213.94999129 143 212 C144.15628906 211.96132813 144.15628906 211.96132813 145.3359375 211.921875 C146.33882812 211.86515625 147.34171875 211.8084375 148.375 211.75 C149.37273437 211.70359375 150.37046875 211.6571875 151.3984375 211.609375 C154.1526477 211.27839115 154.1526477 211.27839115 155.3515625 208.953125 C155.56554688 208.30859375 155.77953125 207.6640625 156 207 C155.67 206.67 155.34 206.34 155 206 C157.01822917 205.83723958 159.03645833 205.67447917 161.0546875 205.51171875 C163.39519216 205.12606964 163.39519216 205.12606964 165 202 C165 200.68 165 199.36 165 198 C166.65 198 168.3 198 170 198 C170.45375 196.7625 170.9075 195.525 171.375 194.25 C174.46879334 186.10540915 174.46879334 186.10540915 179 184 C178.94779297 183.07767578 178.94779297 183.07767578 178.89453125 182.13671875 C178.86746094 181.32847656 178.84039063 180.52023437 178.8125 179.6875 C178.76029297 178.48673828 178.76029297 178.48673828 178.70703125 177.26171875 C179 175 179 175 180.32421875 173.26953125 C182 172 182 172 185 171 C185 153.51 185 136.02 185 118 C183.02 117.67 181.04 117.34 179 117 C179 113.04 179 109.08 179 105 C177.5459375 104.814375 177.5459375 104.814375 176.0625 104.625 C175.051875 104.41875 174.04125 104.2125 173 104 C172.67 103.34 172.34 102.68 172 102 C172.66 102 173.32 102 174 102 C173.690625 101.278125 173.38125 100.55625 173.0625 99.8125 C172.07439461 97.19692691 171.4712246 94.74881018 171 92 C168.69 91.67 166.38 91.34 164 91 C164 89.35 164 87.7 164 86 C160.38026598 84.68373308 157.90432869 84 154 84 C154.33 83.01 154.66 82.02 155 81 C153.37044414 77.82234255 153.37044414 77.82234255 150.7578125 77.453125 C149.88898438 77.38609375 149.02015625 77.3190625 148.125 77.25 C146.82949219 77.13398438 146.82949219 77.13398438 145.5078125 77.015625 C143.12633882 77.00078716 141.26549223 77.30454657 139 78 C139 77.34 139 76.68 139 76 C139.66 76 140.32 76 141 76 C140.73323796 74.01508358 140.73323796 74.01508358 140 72 C136.64547871 70.88182624 134.13581736 70.8797413 130.60083008 70.88647461 C129.95665634 70.88632858 129.3124826 70.88618256 128.64878845 70.8860321 C126.52233498 70.88672805 124.3959694 70.89450552 122.26953125 70.90234375 C120.79408313 70.90420906 119.31863439 70.90563243 117.84318542 70.90663147 C113.96174405 70.91044774 110.08034015 70.92027044 106.19891357 70.93133545 C102.23743192 70.94156869 98.27594419 70.94613319 94.31445312 70.95117188 C86.54295167 70.9618935 78.77148109 70.97895925 71 71 Z " fill="#1A2C5E" transform="translate(1062,352)"/>
<path d="M0 0 C70.95 0 141.9 0 215 0 C215 23.43 215 46.86 215 71 C167.48 71 119.96 71 71 71 C71.33 72.98 71.66 74.96 72 77 C72.08876926 79.16530006 72.13059728 81.33288223 72.1328125 83.5 C72.13410156 84.716875 72.13539063 85.93375 72.13671875 87.1875 C72.13285156 88.445625 72.12898438 89.70375 72.125 91 C72.12886719 92.258125 72.13273437 93.51625 72.13671875 94.8125 C72.13542969 96.029375 72.13414062 97.24625 72.1328125 98.5 C72.13168457 99.6034375 72.13055664 100.706875 72.12939453 101.84375 C72 105 72 105 71 111 C113.24 111 155.48 111 199 111 C200.15274672 131.74944098 200.15274672 131.74944098 200.1328125 138.46484375 C200.13376923 139.23453995 200.13472595 140.00423615 200.13571167 140.79725647 C200.13637809 142.3854277 200.13463463 143.97360193 200.13037109 145.56176758 C200.1249465 147.96116282 200.13039625 150.36037549 200.13671875 152.75976562 C200.13985266 160.89256367 199.9787312 168.91264823 199 177 C192.6691558 179.26441811 186.77714165 179.27046453 180.09790039 179.22705078 C178.91669617 179.22734283 177.73549194 179.22763489 176.51849365 179.22793579 C173.29786606 179.22678562 170.07741489 179.21679224 166.85682225 179.20278788 C163.48426287 179.19023981 160.1116996 179.18910682 156.73912048 179.18673706 C150.36090479 179.18053422 143.9827581 179.1641397 137.60457271 179.14403808 C130.33974577 179.12164173 123.07491543 179.11067628 115.81006253 179.10064721 C100.87333665 179.07977234 85.93667524 179.04461976 71 179 C71.24377963 180.17309235 71.24377963 180.17309235 71.49248409 181.36988354 C71.94542371 183.71716751 72.12127939 185.76722591 72.11352539 188.14770508 C72.11341209 189.31835258 72.11341209 189.31835258 72.11329651 190.51264954 C72.10555458 191.75355598 72.10555458 191.75355598 72.09765625 193.01953125 C72.0962413 193.87810226 72.09482635 194.73667328 72.09336853 195.6212616 C72.08779057 198.35171049 72.07524214 201.08207607 72.0625 203.8125 C72.05748215 205.6686186 72.05291974 207.5247385 72.04882812 209.38085938 C72.03782836 213.9206048 72.02057893 218.4602883 72 223 C73.32 222.34 74.64 221.68 76 221 C74.515 220.01 74.515 220.01 73 219 C76.14631709 217.95122764 78.33544291 217.87676776 81.63774109 217.87974548 C82.8114325 217.87837082 83.9851239 217.87699615 85.19438171 217.87557983 C86.48334854 217.87917511 87.77231537 217.88277039 89.1003418 217.88647461 C90.470225 217.88675666 91.84010834 217.8865984 93.20999146 217.8860321 C96.93078273 217.88574482 100.65154186 217.89163051 104.37232566 217.89860606 C108.26008171 217.90485096 112.14783847 217.9054443 116.03559875 217.90663147 C123.39848557 217.90974142 130.76135756 217.91795031 138.12423784 217.92798096 C148.07309324 217.94124079 158.02195269 217.94664472 167.9708147 217.95248318 C183.64722091 217.9618904 199.32359583 217.98181157 215 218 C215 239.45 215 260.9 215 283 C143.06 283 71.12 283 -3 283 C-3.04033135 214.14990588 -3.04033135 214.14990588 -3.04882812 185.44140625 C-3.05078607 178.8699544 -3.05280657 172.29850258 -3.05493164 165.72705078 C-3.05519539 164.90339866 -3.05545914 164.07974653 -3.05573088 163.23113525 C-3.06008307 149.92479587 -3.06796848 136.6184608 -3.0771528 123.31212398 C-3.0864963 109.66155514 -3.09205709 96.01098856 -3.09408849 82.36041665 C-3.09546227 73.93374567 -3.09980503 65.50708686 -3.10791647 57.08041963 C-3.1131925 51.30604937 -3.11480233 45.53168542 -3.11350138 39.75731292 C-3.11285935 36.42321556 -3.11440277 33.08915675 -3.11920547 29.7550602 C-3.12415409 26.14371675 -3.1229939 22.53242612 -3.12025452 18.92108154 C-3.12316736 17.86272213 -3.1260802 16.80436271 -3.12908131 15.7139318 C-3.12709026 14.74803382 -3.12509921 13.78213584 -3.12304783 12.78696823 C-3.12342755 11.95310239 -3.12380727 11.11923654 -3.1241985 10.26010203 C-3.00261366 8.04756214 -2.61471875 6.12370984 -2 4 C-1.34 4 -0.68 4 0 4 C0 2.68 0 1.36 0 0 Z " fill="#1A2C5E" transform="translate(2701,352)"/>
<path d="M0 0 C3.96 0 7.92 0 12 0 C12 0.66 12 1.32 12 2 C23.88 2.33 35.76 2.66 48 3 C47.34 3.33 46.68 3.66 46 4 C46.33 5.32 46.66 6.64 47 8 C50.71429898 9.1161656 54.39161508 9.3124195 58.25 9.5625 C59.51328125 9.64628906 60.7765625 9.73007812 62.078125 9.81640625 C63.04234375 9.87699219 64.0065625 9.93757813 65 10 C65.433125 11.2065625 65.433125 11.2065625 65.875 12.4375 C66.73262568 15.1326468 66.73262568 15.1326468 69 16 C70.87056791 16.2275015 72.74685958 16.40962811 74.625 16.5625 C75.62789062 16.64628906 76.63078125 16.73007812 77.6640625 16.81640625 C78.43492187 16.87699219 79.20578125 16.93757813 80 17 C80.33 18.65 80.66 20.3 81 22 C83.97 22.33 86.94 22.66 90 23 C90.33 24.65 90.66 26.3 91 28 C93.97 28.99 96.94 29.98 100 31 C100.33 32.65 100.66 34.3 101 36 C103.97 36.495 103.97 36.495 107 37 C107.33 38.65 107.66 40.3 108 42 C110.97 42.99 110.97 42.99 114 44 C114 45.98 114 47.96 114 50 C116.31 50 118.62 50 121 50 C121 52.31 121 54.62 121 57 C122.98 57 124.96 57 127 57 C128.17076699 60.98060777 129.25749403 64.91621717 130 69 C131.32 68.67 132.64 68.34 134 68 C134.66 70.97 135.32 73.94 136 77 C137.32 77.33 138.64 77.66 140 78 C141.91931396 82.12652501 142 85.52819344 142 90 C142.91257306 92.78566059 142.91257306 92.78566059 144 95 C145.32 94.67 146.64 94.34 148 94 C148.66 103.24 149.32 112.48 150 122 C150.99 122 151.98 122 153 122 C153.33 121.34 153.66 120.68 154 120 C155.17737871 122.35475743 155.13281273 123.77689112 155.14526367 126.40209961 C155.15483345 127.76878029 155.15483345 127.76878029 155.16459656 129.16307068 C155.16626579 130.64276085 155.16626579 130.64276085 155.16796875 132.15234375 C155.17129715 133.1634169 155.17462555 134.17449005 155.17805481 135.21620178 C155.1831236 137.35726465 155.18546315 139.49833543 155.18530273 141.6394043 C155.1874887 144.92054214 155.2056436 148.20134359 155.22460938 151.48242188 C155.22754336 153.55989468 155.22952812 155.63736909 155.23046875 157.71484375 C155.23765427 158.69927963 155.24483978 159.68371552 155.25224304 160.69798279 C155.24916641 161.6122554 155.24608978 162.52652802 155.24291992 163.46850586 C155.24434494 164.27299667 155.24576996 165.07748749 155.24723816 165.90635681 C155 168 155 168 153 171 C152.67 170.34 152.34 169.68 152 169 C152 169.66 152 170.32 152 171 C151.34 171 150.68 171 150 171 C149.00689595 175.0887956 148.92814729 178.863607 149 183.0625 C149.12650374 190.47087502 149.12650374 190.47087502 148 194 C146.68 193.67 145.36 193.34 144 193 C142.22847628 197.53952952 141.91189781 201.1543796 142 206 C141.71479595 207.67557379 141.40044304 209.34817245 141 211 C139.35 211.33 137.7 211.66 136 212 C135.02391783 214.92824652 134.91773332 216.95613276 135 220 C133.02 220 131.04 220 129 220 C129.33 221.65 129.66 223.3 130 225 C129.34 225 128.68 225 128 225 C127.34 227.31 126.68 229.62 126 232 C124.35 232 122.7 232 121 232 C121 234.31 121 236.62 121 239 C119.02 239.33 117.04 239.66 115 240 C115 241.65 115 243.3 115 245 C111.535 245.99 111.535 245.99 108 247 C108 248.65 108 250.3 108 252 C105.69 252.33 103.38 252.66 101 253 C100.34 254.98 99.68 256.96 99 259 C96.36 259.33 93.72 259.66 91 260 C91 261.98 91 263.96 91 266 C87.7 266.33 84.4 266.66 81 267 C80.67 268.65 80.34 270.3 80 272 C78.04200486 272.33531415 76.08359226 272.66819143 74.125 273 C73.03445313 273.185625 71.94390625 273.37125 70.8203125 273.5625 C68 274 68 274 66 274 C66.33 275.98 66.66 277.96 67 280 C62.38 279.67 57.76 279.34 53 279 C53.33 280.32 53.66 281.64 54 283 C21.99 283 -10.02 283 -43 283 C-43 282.01 -43 281.02 -43 280 C-46.96 280 -50.92 280 -55 280 C-54.67 278.02 -54.34 276.04 -54 274 C-54.91523437 273.95101563 -55.83046875 273.90203125 -56.7734375 273.8515625 C-57.96195313 273.77679687 -59.15046875 273.70203125 -60.375 273.625 C-61.55835938 273.55539062 -62.74171875 273.48578125 -63.9609375 273.4140625 C-67 273 -67 273 -69 271 C-68.34 271 -67.68 271 -67 271 C-67.5882524 268.94511644 -67.5882524 268.94511644 -69 267 C-71.64787088 266.29626983 -71.64787088 266.29626983 -74.625 266.25 C-75.62789062 266.19328125 -76.63078125 266.1365625 -77.6640625 266.078125 C-78.43492188 266.05234375 -79.20578125 266.0265625 -80 266 C-80 264.35 -80 262.7 -80 261 C-83.96 259.515 -83.96 259.515 -88 258 C-88 256.35 -88 254.7 -88 253 C-90.31 252.67 -92.62 252.34 -95 252 C-95 250.35 -95 248.7 -95 247 C-97.31 246.34 -99.62 245.68 -102 245 C-102.495 242.525 -102.495 242.525 -103 240 C-104.65 239.67 -106.3 239.34 -108 239 C-108.33 237.02 -108.66 235.04 -109 233 C-110.65 232.67 -112.3 232.34 -114 232 C-114.33 230.02 -114.66 228.04 -115 226 C-116.65 225.67 -118.3 225.34 -120 225 C-121.13764351 220.73383684 -122 217.43513689 -122 213 C-122.79792969 212.79632812 -123.59585937 212.59265625 -124.41796875 212.3828125 C-127 211 -127 211 -127.92578125 208.1796875 C-128.05339844 207.08914063 -128.18101563 205.99859375 -128.3125 204.875 C-128.45300781 203.77929688 -128.59351563 202.68359375 -128.73828125 201.5546875 C-128.82464844 200.71164062 -128.91101562 199.86859375 -129 199 C-130.32 199 -131.64 199 -133 199 C-134.88180639 195.23638723 -134.3325022 190.39142318 -134.4296875 186.20898438 C-134.44177345 182.00706084 -134.44177345 182.00706084 -136.34228516 178.44116211 C-137.41825442 177.50575025 -138.51867216 176.59748638 -139.64501953 175.72338867 C-141.71648303 173.08871105 -141.52226857 170.73759896 -141.6796875 167.42578125 C-141.71270966 166.76822342 -141.74573181 166.11066559 -141.77975464 165.43318176 C-142.11094719 158.11472708 -142.15090401 150.78883307 -142.13037109 143.46411133 C-142.12496337 141.17197182 -142.13038218 138.88002463 -142.13671875 136.58789062 C-142.13978765 129.00003057 -141.94538115 121.54054011 -141 114 C-140.34 114 -139.68 114 -139 114 C-139 115.32 -139 116.64 -139 118 C-136.75240361 117.14117517 -136.75240361 117.14117517 -135.9140625 114.5546875 C-134.7570898 110.05534921 -134.54226161 105.75257128 -134.375 101.125 C-134.31699219 99.80628906 -134.31699219 99.80628906 -134.2578125 98.4609375 C-134.16418966 96.30761207 -134.08103541 94.15383586 -134 92 C-131.03 91.505 -131.03 91.505 -128 91 C-128.05220703 89.86111328 -128.05220703 89.86111328 -128.10546875 88.69921875 C-128.13253906 87.70535156 -128.15960937 86.71148437 -128.1875 85.6875 C-128.22230469 84.70136719 -128.25710938 83.71523438 -128.29296875 82.69921875 C-128 80 -128 80 -126.67578125 78.14453125 C-125 77 -125 77 -122 77 C-121.86722656 76.14535156 -121.73445313 75.29070312 -121.59765625 74.41015625 C-121.42105469 73.30542969 -121.24445313 72.20070313 -121.0625 71.0625 C-120.88847656 69.96035156 -120.71445313 68.85820312 -120.53515625 67.72265625 C-120 65 -120 65 -119 64 C-117.33382885 63.95936168 -115.66611905 63.957279 -114 64 C-113.67 61.69 -113.34 59.38 -113 57 C-110.525 56.505 -110.525 56.505 -108 56 C-108 54.02 -108 52.04 -108 50 C-105.69 50 -103.38 50 -101 50 C-101 48.02 -101 46.04 -101 44 C-99.02 43.34 -97.04 42.68 -95 42 C-94.67 40.35 -94.34 38.7 -94 37 C-91.69 36.34 -89.38 35.68 -87 35 C-86.67 33.35 -86.34 31.7 -86 30 C-83.69 29.67 -81.38 29.34 -79 29 C-78.67 27.35 -78.34 25.7 -78 24 C-74.04 23.34 -70.08 22.68 -66 22 C-66.33 20.35 -66.66 18.7 -67 17 C-66.24074219 16.96261719 -65.48148438 16.92523438 -64.69921875 16.88671875 C-63.70535156 16.82097656 -62.71148438 16.75523437 -61.6875 16.6875 C-60.70136719 16.62949219 -59.71523437 16.57148438 -58.69921875 16.51171875 C-55.73001219 15.94881563 -54.7116255 15.45936633 -53 13 C-53 12.01 -53 11.02 -53 10 C-51.89140625 9.95101563 -50.7828125 9.90203125 -49.640625 9.8515625 C-48.17705935 9.77650785 -46.71351888 9.70096119 -45.25 9.625 C-44.52039062 9.5940625 -43.79078125 9.563125 -43.0390625 9.53125 C-39.26057344 9.3251506 -36.22053332 9.08487157 -33 7 C-33 6.34 -33 5.68 -33 5 C-33.99 4.01 -33.99 4.01 -35 3 C-23.45 2.67 -11.9 2.34 0 2 C0 1.34 0 0.68 0 0 Z M-24 73 C-24 73.99 -24 74.98 -24 76 C-23.01 76 -22.02 76 -21 76 C-21 76.66 -21 77.32 -21 78 C-22.19625 77.79375 -23.3925 77.5875 -24.625 77.375 C-28.56379807 76.88527377 -31.36629314 77.22746007 -35 79 C-35.33 79.99 -35.66 80.98 -36 82 C-35.67 82.66 -35.34 83.32 -35 84 C-36.670625 84.2165625 -36.670625 84.2165625 -38.375 84.4375 C-41.82142047 84.78372035 -41.82142047 84.78372035 -44 86 C-43.67 87.65 -43.34 89.3 -43 91 C-43.804375 90.979375 -44.60875 90.95875 -45.4375 90.9375 C-47.93354885 90.70366379 -47.93354885 90.70366379 -49 92 C-49.04063832 93.66617115 -49.042721 95.33388095 -49 97 C-50.65 97.33 -52.3 97.66 -54 98 C-54.33 99.98 -54.66 101.96 -55 104 C-57.475 104.495 -57.475 104.495 -60 105 C-60.19476139 107.60380996 -60.38108614 110.20775533 -60.5625 112.8125 C-60.64661133 113.91948242 -60.64661133 113.91948242 -60.73242188 115.04882812 C-60.95769724 118.36788516 -61.06255812 120.81232564 -60 124 C-61.98 124 -63.96 124 -66 124 C-66.97580441 128.08151756 -67.12900256 131.90281434 -67.1328125 136.09375 C-67.13376923 136.76289429 -67.13472595 137.43203857 -67.13571167 138.12145996 C-67.1363893 139.53003026 -67.13456421 140.93860375 -67.13037109 142.34716797 C-67.12501688 144.49323596 -67.1303302 146.6390947 -67.13671875 148.78515625 C-67.13605789 150.15885462 -67.13477658 151.53255287 -67.1328125 152.90625 C-67.13168457 154.14697266 -67.13055664 155.38769531 -67.12939453 156.66601562 C-67.01635569 159.57857856 -66.67589874 162.17290419 -66 165 C-64.35 165.33 -62.7 165.66 -61 166 C-60.67 171.61 -60.34 177.22 -60 183 C-58.68 183.66 -57.36 184.32 -56 185 C-54.515 184.01 -54.515 184.01 -53 183 C-53.495 183.99 -53.495 183.99 -54 185 C-54.039992 186.99960012 -54.04346799 189.00047242 -54 191 C-53.071875 191.0928125 -53.071875 191.0928125 -52.125 191.1875 C-50 192 -50 192 -48.8125 194.5 C-48.544375 195.325 -48.27625 196.15 -48 197 C-46.93354885 198.29633621 -46.93354885 198.29633621 -44.4375 198.0625 C-43.633125 198.041875 -42.82875 198.02125 -42 198 C-42 198.66 -42 199.32 -42 200 C-42.66 200 -43.32 200 -44 200 C-44 200.99 -44 201.98 -44 203 C-40.77208445 205.1519437 -39.71599191 205.20086443 -36 205 C-36.020625 205.804375 -36.04125 206.60875 -36.0625 207.4375 C-36.29633621 209.93354885 -36.29633621 209.93354885 -35 211 C-32.98405418 211.23427778 -30.961526 211.41336124 -28.9375 211.5625 C-27.83277344 211.64628906 -26.72804688 211.73007812 -25.58984375 211.81640625 C-24.73519531 211.87699219 -23.88054687 211.93757812 -23 212 C-23.33 213.32 -23.66 214.64 -24 216 C-20.3525428 218.43163814 -17.424613 218.45067828 -13.1875 218.625 C-12.40141357 218.66222168 -11.61532715 218.69944336 -10.80541992 218.73779297 C13.99311106 221.2830945 13.99311106 221.2830945 37 216 C37 214.68 37 213.36 37 212 C40.63 211.67 44.26 211.34 48 211 C48.33 209.35 48.66 207.7 49 206 C49.969375 205.7525 50.93875 205.505 51.9375 205.25 C55.10685022 204.36005841 55.10685022 204.36005841 55.9375 202 C56.16078447 199.92579178 56.16078447 199.92579178 55 198 C56.98 198 58.96 198 61 198 C61.66 196.02 62.32 194.04 63 192 C64.32 192 65.64 192 67 192 C67.144375 191.2575 67.28875 190.515 67.4375 189.75 C67.90187492 187.47972261 68.41863569 185.24240521 69 183 C69.99 183 70.98 183 72 183 C72 181.35 72 179.7 72 178 C72.66 178 73.32 178 74 178 C74.33 173.05 74.66 168.1 75 163 C76.32 163 77.64 163 79 163 C81.45238313 160.54761687 80.48674607 154.30589542 80.625 151 C80.6765625 149.98292969 80.728125 148.96585937 80.78125 147.91796875 C81.04797621 141.80680059 80.84577892 136.05931165 80 130 C79.01 130.33 78.02 130.66 77 131 C77 130.34 77 129.68 77 129 C76.34 128.67 75.68 128.34 75 128 C74.62109375 125.453125 74.62109375 125.453125 74.4375 122.25 C74.1117565 116.56618674 74.1117565 116.56618674 73 111 C71.03327085 109.8499169 71.03327085 109.8499169 69 109 C67.77036367 105.31109101 67.44329599 101.86300794 67 98 C65.7934375 97.6596875 65.7934375 97.6596875 64.5625 97.3125 C63.716875 96.879375 62.87125 96.44625 62 96 C61.1875 93.375 61.1875 93.375 61 91 C59.02 91 57.04 91 55 91 C55.226875 90.401875 55.45375 89.80375 55.6875 89.1875 C56.23938689 86.97701922 56.23938689 86.97701922 54.9375 85.25 C52.24828988 83.51502573 50.13104437 83.79126371 47 84 C47.2784375 83.071875 47.2784375 83.071875 47.5625 82.125 C48.23686176 79.95839822 48.23686176 79.95839822 47 78 C44.25357787 77.49154547 44.25357787 77.49154547 41.0625 77.3125 C39.98097656 77.22613281 38.89945313 77.13976562 37.78515625 77.05078125 C35.04263952 76.78557837 35.04263952 76.78557837 33 78 C33.66 76.35 34.32 74.7 35 73 C31.4906533 71.41742516 28.74879908 70.74827921 24.90600586 70.74121094 C23.91825668 70.73490662 22.93050751 70.72860229 21.91282654 70.72210693 C20.85749222 70.7261554 19.8021579 70.73020386 18.71484375 70.734375 C17.07498253 70.73150482 17.07498253 70.73150482 15.4019928 70.72857666 C13.09473439 70.72721766 10.78746826 70.73089415 8.48022461 70.73925781 C4.94692855 70.74997141 1.41413975 70.73934732 -2.11914062 70.7265625 C-4.36198029 70.72788394 -6.60481964 70.73044602 -8.84765625 70.734375 C-9.9050148 70.73032654 -10.96237335 70.72627808 -12.05177307 70.72210693 C-13.52866859 70.73156342 -13.52866859 70.73156342 -15.03540039 70.74121094 C-15.89968155 70.74280212 -16.76396271 70.74439331 -17.6544342 70.74603271 C-20.17958668 71.01944484 -21.81911054 71.73018929 -24 73 Z " fill="#1A2C5E" transform="translate(1489,352)"/>
<path d="M0 0 C22.11 0 44.22 0 67 0 C67.04010881 26.25344398 67.04010881 26.25344398 67.04882812 37.43554688 C67.05480823 45.06861058 67.0618864 52.7016623 67.07543945 60.3347168 C67.08629667 66.48791956 67.09228288 72.64110946 67.09487724 78.79432106 C67.09672636 81.14307673 67.10033717 83.49183169 67.10573006 85.84058189 C67.11297803 89.12770488 67.11398934 92.41477462 67.11352539 95.7019043 C67.11712067 96.6751062 67.12071594 97.64830811 67.12442017 98.65100098 C67.1230455 99.54977463 67.12167084 100.44854828 67.12025452 101.3745575 C67.12117631 102.15162898 67.1220981 102.92870047 67.12304783 103.72931957 C67 106 67 106 66 111 C99 110.67 132 110.34 166 110 C165.98839844 102.31074219 165.97679688 94.62148438 165.96484375 86.69921875 C165.95973602 81.8365877 165.95492218 76.97395995 165.95117188 72.11132812 C165.94518719 64.38809525 165.9380968 56.6648742 165.92456055 48.94165039 C165.91371894 42.71713443 165.90772044 36.49263114 165.90512276 30.26810646 C165.90327082 27.88978692 165.8996546 25.51146809 165.89426994 23.13315392 C165.88704267 19.80970113 165.88600978 16.48630114 165.88647461 13.1628418 C165.88287933 12.1730986 165.87928406 11.18335541 165.87557983 10.16362 C165.8769545 9.25918152 165.87832916 8.35474304 165.87974548 7.42289734 C165.87836279 6.24346322 165.87836279 6.24346322 165.87695217 5.04020214 C166 3 166 3 167 0 C189.77 0 212.54 0 236 0 C236 0.99 236 1.98 236 3 C237.32 3 238.64 3 240 3 C240 95.4 240 187.8 240 283 C215.58 283 191.16 283 166 283 C166 249.01 166 215.02 166 180 C133 179.67 100 179.34 66 179 C66.33 180.32 66.66 181.64 67 183 C67.08529849 184.42381219 67.12204643 185.85104096 67.12025452 187.27740479 C67.12231651 188.54777588 67.12231651 188.54777588 67.12442017 189.84381104 C67.11902725 191.22485016 67.11902725 191.22485016 67.11352539 192.63378906 C67.11367142 193.60973022 67.11381744 194.58567139 67.1139679 195.59118652 C67.1132714 198.81602198 67.10549126 202.04079963 67.09765625 205.265625 C67.09579114 207.50193246 67.09436767 209.73824033 67.09336853 211.97454834 C67.08955071 217.85999683 67.07972666 223.74542064 67.06866455 229.63085938 C67.056636 236.69269297 67.05204469 243.75453482 67.04621124 250.81637573 C67.03651454 261.54426766 67.01735281 272.27210542 67 283 C43.9 283 20.8 283 -3 283 C-3.02202914 247.61848599 -3.04049956 212.23697842 -3.05106533 176.85545952 C-3.0523161 172.68212274 -3.05361041 168.50878598 -3.05493164 164.33544922 C-3.05519395 163.50458293 -3.05545626 162.67371665 -3.05572652 161.8176726 C-3.06008255 148.34924686 -3.06796974 134.88082538 -3.0771528 121.41240217 C-3.08649119 107.60138122 -3.09205601 93.7903625 -3.09408849 79.97933853 C-3.09546333 71.45132057 -3.09981183 62.92331463 -3.10791647 54.39530037 C-3.11318621 48.5541325 -3.11480377 42.71297087 -3.11350138 36.8718008 C-3.11285836 33.49744607 -3.11441119 30.12312944 -3.11920547 26.74877548 C-3.12414138 23.09732123 -3.12299864 19.44591944 -3.12025452 15.79446411 C-3.12316736 14.71860617 -3.1260802 13.64274822 -3.12908131 12.53428853 C-3.12709026 11.56192246 -3.12509921 10.58955639 -3.12304783 9.58772469 C-3.12342755 8.74398611 -3.12380727 7.90024754 -3.1241985 7.03094113 C-3 5 -3 5 -2 3 C-1.34 3 -0.68 3 0 3 C0 2.01 0 1.02 0 0 Z " fill="#1A2C5E" transform="translate(1975,352)"/>
<path d="M0 0 C3.96 0 7.92 0 12 0 C12 0.66 12 1.32 12 2 C32.295 2.495 32.295 2.495 53 3 C52.01 3.33 51.02 3.66 50 4 C50 5.32 50 6.64 50 8 C55.10381117 9.21567156 60.24994221 9.32922327 65.46875 9.51757812 C67.31727479 9.60829277 69.16049366 9.79631037 71 10 C71.33 10.66 71.66 11.32 72 12 C71.34 12 70.68 12 70 12 C72.26118038 14.74415095 73.47594492 15.89410286 77.015625 16.609375 C78.08296875 16.65578125 79.1503125 16.7021875 80.25 16.75 C81.32765625 16.80671875 82.4053125 16.8634375 83.515625 16.921875 C84.33546875 16.94765625 85.1553125 16.9734375 86 17 C85.34 17.33 84.68 17.66 84 18 C84 19.32 84 20.64 84 22 C84.62648438 22.06058594 85.25296875 22.12117188 85.8984375 22.18359375 C86.71570312 22.26738281 87.53296875 22.35117187 88.375 22.4375 C89.59316406 22.55931641 89.59316406 22.55931641 90.8359375 22.68359375 C93 23 93 23 95 24 C95.33 25.32 95.66 26.64 96 28 C100.455 28.99 100.455 28.99 105 30 C104.67 31.65 104.34 33.3 104 35 C107.63 35.66 111.26 36.32 115 37 C117.91488379 50.54563645 117.91488379 50.54563645 116 57 C113.9375 59.5625 113.9375 59.5625 112 61 C112.66 61.33 113.32 61.66 114 62 C114 62.66 114 63.32 114 64 C112.88625 64.226875 111.7725 64.45375 110.625 64.6875 C109.42875 65.120625 108.2325 65.55375 107 66 C105.78130071 68.50447516 105.78130071 68.50447516 105 71 C102.875 71.8125 102.875 71.8125 101 72 C101 73.98 101 75.96 101 78 C99.02 78 97.04 78 95 78 C94.67 79.98 94.34 81.96 94 84 C91.03 84.99 91.03 84.99 88 86 C88 87.98 88 89.96 88 92 C85.03 92.495 85.03 92.495 82 93 C82 94.32 82 95.64 82 97 C79.52224905 98.23887548 77.76346293 98.16741669 75 98.1875 C74.113125 98.20167969 73.22625 98.21585937 72.3125 98.23046875 C70 98 70 98 68 96 C68 94.68 68 93.36 68 92 C65.69 91.67 63.38 91.34 61 91 C60.67 89.35 60.34 87.7 60 86 C56.7 85.34 53.4 84.68 50 84 C50 82.35 50 80.7 50 79 C43.07 78.505 43.07 78.505 36 78 C36 77.34 36 76.68 36 76 C36.66 76 37.32 76 38 76 C37.67 75.01 37.34 74.02 37 73 C34.12368826 72.04122942 32.31916617 71.87346496 29.33251953 71.87060547 C27.91557297 71.86587723 27.91557297 71.86587723 26.47000122 71.86105347 C25.45122894 71.8630777 24.43245667 71.86510193 23.3828125 71.8671875 C22.33350555 71.86623077 21.28419861 71.86527405 20.20309448 71.86428833 C17.98223816 71.86360751 15.76137985 71.86545497 13.54052734 71.86962891 C10.1454621 71.87496782 6.75052981 71.8696861 3.35546875 71.86328125 C1.19791638 71.86394226 -0.95963592 71.86522389 -3.1171875 71.8671875 C-4.63927322 71.86415115 -4.63927322 71.86415115 -6.19210815 71.86105347 C-7.14304352 71.86420563 -8.09397888 71.86735779 -9.07373047 71.87060547 C-9.90629364 71.87140106 -10.73885681 71.87219666 -11.59664917 71.87301636 C-14.14455791 72.00763787 -16.5132541 72.44196994 -19 73 C-19 74.65 -19 76.3 -19 78 C-24.94 78.495 -24.94 78.495 -31 79 C-31.33 80.65 -31.66 82.3 -32 84 C-35.465 84.99 -35.465 84.99 -39 86 C-39 87.98 -39 89.96 -39 92 C-41.31 91.67 -43.62 91.34 -46 91 C-46 93.31 -46 95.62 -46 98 C-47.98 98.99 -47.98 98.99 -50 100 C-49.67 101.65 -49.34 103.3 -49 105 C-50.98 104.505 -50.98 104.505 -53 104 C-52.95875 105.216875 -52.9175 106.43375 -52.875 107.6875 C-52.8875018 111.21300624 -53.12991874 113.91436592 -55 117 C-57.078125 117.62890625 -57.078125 117.62890625 -59 118 C-59.02538517 125.43814362 -59.04288172 132.87627603 -59.05493164 140.31445312 C-59.05995589 142.84407977 -59.06677638 145.37370351 -59.07543945 147.90332031 C-59.08758853 151.54232499 -59.09324746 155.18129122 -59.09765625 158.8203125 C-59.10281754 159.94865509 -59.10797882 161.07699768 -59.11329651 162.23953247 C-59.11340981 163.83050247 -59.11340981 163.83050247 -59.11352539 165.45361328 C-59.115746 166.38182892 -59.11796661 167.31004456 -59.12025452 168.26638794 C-58.98936598 171.24173142 -58.54351624 174.07420242 -58 177 C-57.01 177 -56.02 177 -55 177 C-54.67 176.34 -54.34 175.68 -54 175 C-52.5192152 177.9615696 -52.64685963 180.83506295 -52.4375 184.125 C-52.35371094 185.40632812 -52.26992187 186.68765625 -52.18359375 188.0078125 C-52.12300781 188.99523437 -52.06242187 189.98265625 -52 191 C-50.02 191 -48.04 191 -46 191 C-46 192.98 -46 194.96 -46 197 C-44.35 197.33 -42.7 197.66 -41 198 C-40.505 201.465 -40.505 201.465 -40 205 C-39.21625 204.814375 -38.4325 204.62875 -37.625 204.4375 C-35 204 -35 204 -33 205 C-33 206.98 -33 208.96 -33 211 C-29.37 211 -25.74 211 -22 211 C-22 212.66666667 -22 214.33333333 -22 216 C-19.11471509 217.44264246 -16.1715298 217.38343826 -13 217.5625 C-12.26523438 217.6042334 -11.53046875 217.6459668 -10.7734375 217.68896484 C6.13739247 218.53244069 23.12135879 218.31643998 40 217 C40.99 214.03 40.99 214.03 42 211 C45.96 211 49.92 211 54 211 C54 209.02 54 207.04 54 205 C56.97 204.67 59.94 204.34 63 204 C63.33 202.68 63.66 201.36 64 200 C63.34 200 62.68 200 62 200 C62 199.34 62 198.68 62 198 C63.98 197.67 65.96 197.34 68 197 C68.33 195.35 68.66 193.7 69 192 C71.62450086 191.77880061 74.24870486 191.57253331 76.875 191.375 C77.62136719 191.31054688 78.36773438 191.24609375 79.13671875 191.1796875 C81.0870047 191.03912635 83.04469467 191.01240151 85 191 C85.66 191.66 86.32 192.32 87 193 C86.625 195.125 86.625 195.125 86 197 C87.98 197.33 89.96 197.66 92 198 C91.67 199.65 91.34 201.3 91 203 C92.65 203.66 94.3 204.32 96 205 C96 206.65 96 208.3 96 210 C98.31 210.33 100.62 210.66 103 211 C103 212.98 103 214.96 103 217 C105.31 217.33 107.62 217.66 110 218 C110 219.65 110 221.3 110 223 C113.96 223.99 117.92 224.98 122 226 C122.054138 228.24973447 122.09285491 230.49984383 122.125 232.75 C122.14820313 234.00296875 122.17140625 235.2559375 122.1953125 236.546875 C121.91008759 241.58965137 121.91008759 241.58965137 120 244 C117.6171875 245.046875 117.6171875 245.046875 114.875 245.75 C113.50988281 246.11351562 113.50988281 246.11351562 112.1171875 246.484375 C111.41851563 246.65453125 110.71984375 246.8246875 110 247 C109.67 248.65 109.34 250.3 109 252 C105.535 252.99 105.535 252.99 102 254 C101.67 255.65 101.34 257.3 101 259 C98.69 259.66 96.38 260.32 94 261 C93.67 262.65 93.34 264.3 93 266 C90.03 266.33 87.06 266.66 84 267 C83.67 268.32 83.34 269.64 83 271 C83.66 271.33 84.32 271.66 85 272 C80.05 272.66 75.1 273.32 70 274 C70 275.32 70 276.64 70 278 C70.66 278 71.32 278 72 278 C72 278.66 72 279.32 72 280 C68.04 279.67 64.08 279.34 60 279 C60.33 280.32 60.66 281.64 61 283 C25.69 283 -9.62 283 -46 283 C-45 280 -45 280 -44 279 C-47.63 279.33 -51.26 279.66 -55 280 C-54.67 278.35 -54.34 276.7 -54 275 C-56.11452238 272.88547762 -60.56995426 273.55438351 -63.43359375 273.37890625 C-66 273 -66 273 -68 271 C-67.625 268.375 -67.625 268.375 -67 266 C-70.3 266 -73.6 266 -77 266 C-77 265.236875 -77 264.47375 -77 263.6875 C-77.33 262.800625 -77.66 261.91375 -78 261 C-79.84279048 260.11577472 -79.84279048 260.11577472 -82 259.5 C-84.1875 258.82421875 -84.1875 258.82421875 -86 258 C-87 255.3125 -87 255.3125 -87 253 C-88.98 252.67 -90.96 252.34 -93 252 C-93.495 249.525 -93.495 249.525 -94 247 C-96.97 246.01 -96.97 246.01 -100 245 C-100 243.02 -100 241.04 -100 239 C-101.65 239 -103.3 239 -105 239 C-105.66 237.02 -106.32 235.04 -107 233 C-108.65 232.67 -110.3 232.34 -112 232 C-112.15855469 231.15695312 -112.31710937 230.31390625 -112.48046875 229.4453125 C-112.71378906 228.34960938 -112.94710938 227.25390625 -113.1875 226.125 C-113.40792969 225.03445313 -113.62835937 223.94390625 -113.85546875 222.8203125 C-114.23316406 221.88960937 -114.61085938 220.95890625 -115 220 C-115.8353125 219.67 -116.670625 219.34 -117.53125 219 C-118.3459375 218.67 -119.160625 218.34 -120 218 C-120.92578125 215.1796875 -120.92578125 215.1796875 -121.3125 211.875 C-121.45300781 210.77929688 -121.59351563 209.68359375 -121.73828125 208.5546875 C-121.82464844 207.71164062 -121.91101562 206.86859375 -122 206 C-123.65 205.67 -125.3 205.34 -127 205 C-127.08040527 204.42967041 -127.16081055 203.85934082 -127.24365234 203.27172852 C-127.61145057 200.70055134 -127.99303105 198.13160849 -128.375 195.5625 C-128.50132813 194.66466797 -128.62765625 193.76683594 -128.7578125 192.84179688 C-128.88671875 191.98779297 -129.015625 191.13378906 -129.1484375 190.25390625 C-129.26364746 189.46314697 -129.37885742 188.6723877 -129.49755859 187.85766602 C-129.66336426 187.24463623 -129.82916992 186.63160645 -130 186 C-130.66 185.67 -131.32 185.34 -132 185 C-132 186.65 -132 188.3 -132 190 C-132.66 190 -133.32 190 -134 190 C-134 161.29 -134 132.58 -134 103 C-132.35 103.33 -130.7 103.66 -129 104 C-128.34 97.73 -127.68 91.46 -127 85 C-124.03 84.505 -124.03 84.505 -121 84 C-120.96261719 83.15695312 -120.92523437 82.31390625 -120.88671875 81.4453125 C-120.82097656 80.34960938 -120.75523438 79.25390625 -120.6875 78.125 C-120.62949219 77.03445313 -120.57148437 75.94390625 -120.51171875 74.8203125 C-120.34285156 73.88960938 -120.17398437 72.95890625 -120 72 C-117 70 -117 70 -114 70 C-114 67.36 -114 64.72 -114 62 C-112.35 62 -110.7 62 -109 62 C-108.76925781 61.22914063 -108.53851562 60.45828125 -108.30078125 59.6640625 C-107.97464844 58.66117187 -107.64851563 57.65828125 -107.3125 56.625 C-106.99925781 55.62726563 -106.68601562 54.62953125 -106.36328125 53.6015625 C-104.67258332 50.37518766 -103.35224397 50.13192653 -100 49 C-99.10613836 46.45224694 -99.10613836 46.45224694 -99 44 C-97.02 43.34 -95.04 42.68 -93 42 C-92.67 40.35 -92.34 38.7 -92 37 C-89.69 36.34 -87.38 35.68 -85 35 C-85 34.01 -85 33.02 -85 32 C-85 31.34 -85 30.68 -85 30 C-81.7 29.67 -78.4 29.34 -75 29 C-74.67 27.02 -74.34 25.04 -74 23 C-70.37 22.67 -66.74 22.34 -63 22 C-63.33 20.35 -63.66 18.7 -64 17 C-63.25234375 16.97421875 -62.5046875 16.9484375 -61.734375 16.921875 C-55.59307795 16.71313116 -55.59307795 16.71313116 -50.3125 13.9375 C-49.879375 13.298125 -49.44625 12.65875 -49 12 C-49.99 11.505 -49.99 11.505 -51 11 C-48.12824935 9.56412467 -45.44706238 9.68885601 -42.25 9.5 C-37.76343528 9.23271529 -33.42181488 8.81383096 -29 8 C-29.26676204 6.01508358 -29.26676204 6.01508358 -30 4 C-30.99 3.67 -31.98 3.34 -33 3 C-22.11 2.67 -11.22 2.34 0 2 C0 1.34 0 0.68 0 0 Z " fill="#1A2C5E" transform="translate(1811,352)"/>
<path d="M0 0 C34.34508481 0.86650443 69.40797591 18.91080454 92.765625 43.35546875 C109.79922743 61.97787796 117.78232081 87.87575969 117.1796875 112.8515625 C114.71580575 156.02305569 94.39623642 194.16241998 66 226 C64.69289063 227.47339844 64.69289063 227.47339844 63.359375 228.9765625 C53.78243553 239.58960361 43.91741446 250.0124951 32.67578125 258.87890625 C29.9033404 261.07662214 27.240784 263.37630947 24.5625 265.6875 C-35.05394581 315.31665463 -114.90975617 344.58951905 -192 348 C-192.76376953 348.03464355 -193.52753906 348.06928711 -194.31445312 348.10498047 C-198.88716214 348.2807699 -203.43146818 348.21706836 -208 348 C-209.331521 347.9383667 -209.331521 347.9383667 -210.68994141 347.87548828 C-254.07727817 345.63119206 -296.06630035 333.58780203 -326.625 301.25 C-345.33602086 279.92737022 -351.60901548 252.72498296 -350 225 C-348.01729293 201.69030194 -339.84630648 179.07439718 -328 159 C-326.31914558 163.10639117 -327.74710003 166.80410275 -328.875 170.875 C-329.24964002 172.26762738 -329.62207263 173.66085065 -329.9921875 175.0546875 C-330.16089355 175.66812012 -330.32959961 176.28155273 -330.50341797 176.91357422 C-336.34247152 201.44678543 -332.03311089 228.27174018 -319.30859375 249.87109375 C-310.03313351 263.66591976 -298.40019806 273.89212986 -284 282 C-283.401875 282.33676758 -282.80375 282.67353516 -282.1875 283.02050781 C-264.64335777 292.7125313 -245.75341277 298.05091664 -226 301 C-225.349104 301.103125 -224.69820801 301.20625 -224.02758789 301.3125 C-201.77108876 304.34317222 -176.99816278 303.0022602 -155 299 C-153.30254639 298.69400879 -153.30254639 298.69400879 -151.57080078 298.38183594 C-101.83976254 289.18898695 -53.76818553 271.3579447 -13 241 C-12.40751465 240.56445801 -11.8150293 240.12891602 -11.20458984 239.68017578 C-4.01390704 234.38338565 2.70930415 228.70582811 9.21484375 222.59765625 C11.70292237 220.27707802 14.23925981 218.03741665 16.8125 215.8125 C20.93105348 212.15894449 24.47910346 208.22359648 28 204 C28.73734375 203.15050781 29.4746875 202.30101562 30.234375 201.42578125 C58.95680235 167.90103723 77.1821525 127.67972486 74 83 C72.74303289 72.82724819 69.44332058 63.21335591 65 54 C64.37351562 52.65228516 64.37351562 52.65228516 63.734375 51.27734375 C50.71966525 25.28532284 25.60004299 11.88085269 0 1 C0 0.67 0 0.34 0 0 Z " fill="#1A2C5E" transform="translate(350,492)"/>
<path d="M0 0 C22.11 0 44.22 0 67 0 C67 0.99 67 1.98 67 3 C67.804375 3.20625 68.60875 3.4125 69.4375 3.625 C70.283125 4.07875 71.12875 4.5325 72 5 C73.50364203 10.51897969 73.13614329 16.37007973 73.12025452 22.04769897 C73.12110894 23.16355177 73.12196337 24.27940456 73.12284368 25.42907107 C73.12449125 29.16936447 73.1189889 32.90961307 73.11352539 36.64990234 C73.11324334 39.33055726 73.11335757 42.01120943 73.1139679 44.69186401 C73.11449184 50.46380452 73.11135855 56.2357337 73.10573006 62.00767136 C73.09759754 70.35288846 73.09499804 78.6981001 73.09374207 87.04332073 C73.0915543 100.58340833 73.08490168 114.12348989 73.07543945 127.66357422 C73.06625821 140.81526662 73.05918086 153.96695738 73.05493164 167.11865234 C73.05466892 167.9295388 73.05440619 168.74042526 73.05413551 169.57588403 C73.05283046 173.64392759 73.05156675 177.71197117 73.05032361 181.78001475 C73.03995957 215.52001518 73.02152588 249.26000439 73 283 C48.25 283 23.5 283 -2 283 C-2 190.93 -2 98.86 -2 4 C-1.34 4 -0.68 4 0 4 C0 2.68 0 1.36 0 0 Z " fill="#1A2C5E" transform="translate(2270,352)"/>
<path d="M0 0 C22.77 0 45.54 0 69 0 C70.67421252 4.1855313 71.24986202 5.77808676 71.24609566 9.95686817 C71.25007775 10.93520738 71.25405985 11.9135466 71.25816262 12.92153245 C71.24942409 14.52221158 71.24942409 14.52221158 71.24050903 16.15522766 C71.24221788 17.29472734 71.24392673 18.43422702 71.24568737 19.608257 C71.24898718 23.43462094 71.23797028 27.26081035 71.22705078 31.0871582 C71.2253736 33.82677827 71.22671491 36.56639491 71.22793579 39.30601501 C71.22898434 45.20840074 71.22271088 51.11074224 71.21146011 57.01311684 C71.195204 65.54694636 71.18999699 74.0807545 71.18748413 82.61459782 C71.1831072 96.46028111 71.16979816 110.30594083 71.15087891 124.15161133 C71.13252005 137.6011544 71.11836357 151.05069107 71.10986328 164.50024414 C71.10933783 165.32931529 71.10881239 166.15838645 71.10827102 167.01258097 C71.10566094 171.17179956 71.10313352 175.33101821 71.10064721 179.49023688 C71.07991478 213.99351214 71.04304505 248.49674357 71 283 C47.57 283 24.14 283 0 283 C0 189.61 0 96.22 0 0 Z " fill="#1A2C5E" transform="translate(639,352)"/>
<path d="M0 0 C0 110.88 0 221.76 0 336 C-13.86135747 332.91969834 -26.92752575 327.533062 -39 320 C-39.75287713 319.55705117 -40.50575427 319.11410234 -41.28144586 318.65773082 C-44.73927046 316.36088366 -47.47898092 314.5357849 -48.8465817 310.50456858 C-49.1858043 307.45652192 -49.23831076 304.51733847 -49.19668579 301.45050049 C-49.21637023 300.29255187 -49.23605468 299.13460325 -49.25633562 297.94156528 C-49.30142262 294.73967215 -49.30635232 291.54067363 -49.29379439 288.33858109 C-49.28989096 284.88075454 -49.33758632 281.42357076 -49.37823486 277.96603394 C-49.4490424 271.19665872 -49.47015674 264.42801085 -49.47172125 257.65829805 C-49.47326676 252.15359657 -49.48942323 246.64913 -49.51585007 241.1444931 C-49.5893329 225.52558605 -49.62626022 209.90723662 -49.61467882 194.2881569 C-49.61405649 193.44669793 -49.61343416 192.60523897 -49.61279297 191.73828125 C-49.61216273 190.89579058 -49.6115325 190.05329991 -49.61088316 189.18527922 C-49.60287184 175.53498389 -49.68108485 161.88673395 -49.79881711 148.23699632 C-49.91885186 134.20972255 -49.97533515 120.18344018 -49.96553743 106.15564036 C-49.96130638 98.28449143 -49.98286015 90.41540754 -50.07249832 82.54471588 C-50.14830145 75.84209881 -50.16466497 69.14253753 -50.10514219 62.43970206 C-50.07645518 59.02158007 -50.07460491 55.60926126 -50.14761734 52.19166946 C-50.49556139 32.20300669 -50.49556139 32.20300669 -46.32100439 26.84504032 C-42.32964528 23.2685225 -37.9172834 20.94136079 -33.00240302 18.87505674 C-30.31757264 17.70177698 -27.9539925 16.15499912 -25.53515625 14.51171875 C-2.6008438 0 -2.6008438 0 0 0 Z " fill="#1A2C5E" transform="translate(103,440)"/>
<path d="M0 0 C0.66 0 1.32 0 2 0 C3.99792638 6.08589758 5.99129025 12.17327546 7.98144531 18.26171875 C8.65942364 20.33400534 9.33845697 22.40594707 10.01855469 24.47753906 C10.99429547 27.45027702 11.96627133 30.42422281 12.9375 33.3984375 C13.24373291 34.32868744 13.54996582 35.25893738 13.86547852 36.21737671 C14.14576904 37.07811798 14.42605957 37.93885925 14.71484375 38.82568359 C14.96355225 39.58513275 15.21226074 40.34458191 15.46850586 41.12704468 C16 43 16 43 16 45 C31.51 45 47.02 45 63 45 C63 45.66 63 46.32 63 47 C61.07471225 48.52599174 59.14825092 49.92591544 57.125 51.3125 C55.84845497 52.20500964 54.57244053 53.09827852 53.296875 53.9921875 C52.60787109 54.47268555 51.91886719 54.95318359 51.20898438 55.44824219 C47.23627884 58.23897123 43.3078245 61.09098713 39.375 63.9375 C38.60559082 64.49284424 37.83618164 65.04818848 37.04345703 65.62036133 C33.67463755 68.053646 30.31946686 70.49958051 27 73 C27.61530189 78.51403405 28.96074016 83.45582967 30.72265625 88.70703125 C30.98759384 89.51363693 31.25253143 90.32024261 31.52549744 91.15129089 C32.36566598 93.70688031 33.21353473 96.25982073 34.0625 98.8125 C34.91400577 101.38335084 35.76381103 103.95473204 36.61021423 106.52726746 C37.13561935 108.12314603 37.66413904 109.71800323 38.19606018 111.3117218 C40 116.77650476 40 116.77650476 40 119 C35.67373449 117.53938926 32.62121981 115.33620545 29.0625 112.5 C19.73317284 105.16509783 10.18476283 98.1108577 0 92 C-2.06721195 93.38923907 -4.12860338 94.78602884 -6.1875 96.1875 C-6.76564453 96.57486328 -7.34378906 96.96222656 -7.93945312 97.36132812 C-10.6809786 99.23547831 -13.03873393 101.03911429 -15.38671875 103.41015625 C-18.83195156 106.82449011 -22.65249029 109.48415706 -26.625 112.25 C-27.388125 112.79140625 -28.15125 113.3328125 -28.9375 113.890625 C-34.60639881 117.8687996 -34.60639881 117.8687996 -38 119 C-36.39079922 112.69479818 -34.54773909 106.49132402 -32.484375 100.3203125 C-32.2627771 99.65384705 -32.0411792 98.98738159 -31.81286621 98.30072021 C-30.89295238 95.53726341 -29.97125225 92.77460865 -29.03222656 90.01757812 C-28.3387373 87.97611317 -27.66041685 85.93011051 -26.984375 83.8828125 C-26.57928711 82.68027832 -26.17419922 81.47774414 -25.75683594 80.23876953 C-24.98326222 76.92837311 -24.83463517 75.17130364 -26 72 C-27.33945365 70.47886996 -27.33945365 70.47886996 -29.1484375 69.37890625 C-29.81560791 68.92491455 -30.48277832 68.47092285 -31.17016602 68.00317383 C-31.89776123 67.52775146 -32.62535645 67.0523291 -33.375 66.5625 C-34.91416542 65.51769181 -36.4518675 64.47072539 -37.98828125 63.421875 C-38.79990723 62.87208984 -39.6115332 62.32230469 -40.44775391 61.75585938 C-44.88751156 58.7014556 -49.22429789 55.5087451 -53.5625 52.3125 C-54.40151855 51.70027588 -55.24053711 51.08805176 -56.10498047 50.45727539 C-56.87600098 49.89000732 -57.64702148 49.32273926 -58.44140625 48.73828125 C-59.12920166 48.23337158 -59.81699707 47.72846191 -60.52563477 47.20825195 C-61.01217529 46.80952881 -61.49871582 46.41080566 -62 46 C-62 45.67 -62 45.34 -62 45 C-46.16 45 -30.32 45 -14 45 C-12.515 39.555 -12.515 39.555 -11 34 C-10.12035596 31.15336309 -9.22839665 28.31872301 -8.30078125 25.48828125 C-7.94091377 24.37962959 -7.94091377 24.37962959 -7.57377625 23.24858093 C-6.82243399 20.93575946 -6.06754522 18.62411489 -5.3125 16.3125 C-4.79598632 14.72468666 -4.27970853 13.13679656 -3.76367188 11.54882812 C-2.51182944 7.6983294 -1.25680972 3.84888011 0 0 Z M0 40 C-0.83698386 42.45714547 -1.66972424 44.91558857 -2.5 47.375 C-2.85771484 48.42300781 -2.85771484 48.42300781 -3.22265625 49.4921875 C-4.53735912 53.16403079 -4.53735912 53.16403079 -5 57 C-11.27 57 -17.54 57 -24 57 C-20.88946842 60.11053158 -18.2506787 62.73885366 -14.8125 65.3125 C-13.80123047 66.08013672 -13.80123047 66.08013672 -12.76953125 66.86328125 C-11.07007701 68.18015865 -11.07007701 68.18015865 -9 68 C-9.54140625 69.57201172 -9.54140625 69.57201172 -10.09375 71.17578125 C-10.56273818 72.55460651 -11.0314751 73.93351725 -11.5 75.3125 C-11.73847656 76.00279297 -11.97695312 76.69308594 -12.22265625 77.40429688 C-13.23208263 80.38931489 -14 82.82658914 -14 86 C-9.69854024 84.05291891 -6.23083601 81.16733337 -2.53515625 78.265625 C0 77 0 77 2.5234375 77.5703125 C5.1245572 79.07190526 7.37143302 80.71394983 9.6875 82.625 C12.49664992 85.23298735 12.49664992 85.23298735 16 86 C15.79503906 85.20335937 15.59007812 84.40671875 15.37890625 83.5859375 C15.10949219 82.52632812 14.84007812 81.46671875 14.5625 80.375 C14.29566406 79.33085938 14.02882812 78.28671875 13.75390625 77.2109375 C13.03547461 74.15108876 12.48023284 71.1051949 12 68 C13.010625 67.28972656 14.02125 66.57945313 15.0625 65.84765625 C16.37512278 64.91944443 17.68761614 63.99104959 19 63.0625 C19.66773438 62.59392578 20.33546875 62.12535156 21.0234375 61.64257812 C22.70029767 60.45337627 24.35238787 59.22940446 26 58 C26 57.67 26 57.34 26 57 C19.73 56.67 13.46 56.34 7 56 C4.525 48.08 4.525 48.08 2 40 C1.34 40 0.68 40 0 40 Z " fill="#BB961D" transform="translate(205,26)"/>
<path d="M0 0 C0.66 0 1.32 0 2 0 C2 91.41 2 182.82 2 277 C1.34 277 0.68 277 0 277 C0 185.59 0 94.18 0 0 Z " fill="#1A2C5E" transform="translate(2650,358)"/>
<path d="M0 0 C0.33 0 0.66 0 1 0 C1 32.67 1 65.34 1 99 C0.67 99 0.34 99 0 99 C0 66.33 0 33.66 0 0 Z " fill="#1A2C5E" transform="translate(2045,358)"/>
<path d="M0 0 C0.33 0 0.66 0 1 0 C1 32.34 1 64.68 1 98 C0.67 98 0.34 98 0 98 C0 65.66 0 33.32 0 0 Z " fill="#1A2C5E" transform="translate(2045,537)"/>
<path d="M0 0 C0.66 0 1.32 0 2 0 C2 2.64 2 5.28 2 8 C1.34 8 0.68 8 0 8 C0 5.36 0 2.72 0 0 Z " fill="#1A2C5E" transform="translate(1931,398)"/>
<path d="" fill="#1A2C5E" transform="translate(0,0)"/>
<path d="" fill="#1A2C5E" transform="translate(0,0)"/>
<path d="" fill="#1A2C5E" transform="translate(0,0)"/>
</svg>
