<?xml version="1.0" encoding="UTF-8"?>
<svg version="1.1" xmlns="http://www.w3.org/2000/svg" width="46" height="46">
<path d="M0 0 C0.66 0 1.32 0 2 0 C2.33 0.66 2.66 1.32 3 2 C3.66 2.33 4.32 2.66 5 3 C4.50168276 6.68754757 3.89932357 8.60490662 1 11 C1.99 11.33 2.98 11.66 4 12 C4.14695312 13.46373047 4.14695312 13.46373047 4.296875 14.95703125 C4.44640625 16.22933594 4.5959375 17.50164063 4.75 18.8125 C4.95882813 20.70935547 4.95882813 20.70935547 5.171875 22.64453125 C6.10670713 26.43236521 6.83227064 26.98874326 10 29 C10.75 32.1875 10.75 32.1875 11 35 C11.30495485 30.57335436 11.30495485 30.57335436 9.5 26.625 C9.005 26.08875 8.51 25.5525 8 25 C14.26221692 27.20023838 14.26221692 27.20023838 16 30 C16.21864017 33.78976294 15.83457615 36.05730831 13.28125 38.94140625 C7.77437914 43.86265838 3.68095427 46.518587 -3.8046875 46.30859375 C-7.2672788 45.82185939 -8.84127099 44.71582037 -11 42 C-11.3125 38.25 -11.3125 38.25 -11 35 C-10.01 34.505 -10.01 34.505 -9 34 C-8.68573231 31.7058459 -8.62075424 29.44226779 -8.5390625 27.12890625 C-8.36117188 26.42636719 -8.18328125 25.72382813 -8 25 C-6.0078125 23.84765625 -6.0078125 23.84765625 -4 23 C-3.19471111 20.94999129 -3.19471111 20.94999129 -3 19 C-2.34 19 -1.68 19 -1 19 C-1.14100857 16.72886197 -1.28796755 14.45809275 -1.4375 12.1875 C-1.51871094 10.92292969 -1.59992187 9.65835937 -1.68359375 8.35546875 C-1.87184547 5.00818107 -1.87184547 5.00818107 -3 2 C-2.34 2 -1.68 2 -1 2 C-0.67 1.34 -0.34 0.68 0 0 Z M0 23 C0 29.27 0 35.54 0 42 C0.33 42 0.66 42 1 42 C1 35.73 1 29.46 1 23 C0.67 23 0.34 23 0 23 Z M-4 24 C-4 29.61 -4 35.22 -4 41 C-3.67 41 -3.34 41 -3 41 C-3 35.39 -3 29.78 -3 24 C-3.33 24 -3.66 24 -4 24 Z M5 34 C5 36.31 5 38.62 5 41 C6.65 40.01 8.3 39.02 10 38 C8.35 36.68 6.7 35.36 5 34 Z " fill="#192B5E" transform="translate(22,0)"/>
<path d="M0 0 C0.66 0 1.32 0 2 0 C2.33 0.66 2.66 1.32 3 2 C3.66 2.33 4.32 2.66 5 3 C4.67 4.65 4.34 6.3 4 8 C3.38125 7.814375 2.7625 7.62875 2.125 7.4375 C-0.04160178 6.76313824 -0.04160178 6.76313824 -2 8 C-2.33 6.02 -2.66 4.04 -3 2 C-2.34 2 -1.68 2 -1 2 C-0.67 1.34 -0.34 0.68 0 0 Z " fill="#BE971B" transform="translate(22,0)"/>
</svg>
